<svg version="1.1" id="Layer_1" xmlns="http://www.w3.org/2000/svg" xmlns:xlink="http://www.w3.org/1999/xlink" x="0px" y="0px"
	 width="40px" height="49px" viewBox="0 0 40 49" enable-background="new 0 0 40 49" xml:space="preserve">
<g>
	<circle fill="#fff" cx="20" cy="19.9917" r="4"/>
	<path fill="#fff" d="M20,0.0073c-11.0469,0-20,8.9551-20,20c0,5.5762,2.2891,10.6094,5.9688,14.2344L20,48.2729l5.6602-5.6602
		L12.0938,28.9526C9.6035,26.7534,8,23.5737,8,19.9917c0-6.6289,5.375-12.002,12-12.002s12,5.373,12,12.002
		c0,4.7734-2.8125,8.8633-6.8516,10.7969l6.168,6.168l2.7148-2.7148C37.7109,30.6167,40,25.5835,40,20.0073
		C40,8.9624,31.0469,0.0073,20,0.0073z"/>
</g>
</svg>