<?xml version="1.0" encoding="utf-8"?>
<!-- Generator: Adobe Illustrator 16.0.0, SVG Export Plug-In . SVG Version: 6.00 Build 0)  -->
<!DOCTYPE svg PUBLIC "-//W3C//DTD SVG 1.1//EN" "http://www.w3.org/Graphics/SVG/1.1/DTD/svg11.dtd">
<svg version="1.1" id="Layer_1" xmlns="http://www.w3.org/2000/svg" xmlns:xlink="http://www.w3.org/1999/xlink" x="0px" y="0px"
	 width="1000px" height="500px" viewBox="0 0 1000 500" enable-background="new 0 0 1000 500" xml:space="preserve">
<g id="base">
	<g>
		<g enable-background="new    ">
			<g>
				<polygon fill="#8F8D80" points="735.954,119.959 735.618,121.323 715.36,95.726 715.671,94.366 				"/>
			</g>
			<g>
				<polygon fill="#8F8C80" points="697.498,139.963 697.19,141.338 689.124,130.602 689.423,129.228 				"/>
			</g>
			<g>
				<polygon fill="#8E8C7F" points="438.252,153.367 438.17,154.786 432.644,144.814 432.72,143.396 				"/>
			</g>
			<g>
				<polygon fill="#A9A697" points="899.27,183.743 898.776,185.098 803.33,206.879 803.75,205.506 				"/>
			</g>
			<g>
				<polygon fill="#8F8D80" points="803.75,205.506 803.33,206.879 794.509,195.734 794.918,194.362 				"/>
			</g>
			<g>
				<polygon fill="#AAA798" points="794.918,194.362 794.509,195.734 751.685,205.345 752.059,203.964 				"/>
			</g>
			<g>
				<polygon fill="#8E8C7F" points="415.589,166.862 415.528,168.287 411.118,160.001 411.174,158.577 				"/>
			</g>
			<g>
				<polygon fill="#A8A596" points="776.862,236.738 776.456,238.119 751.884,243.903 752.269,242.518 				"/>
			</g>
			<g>
				<polygon fill="#8E8C7F" points="334.309,215.639 334.325,217.083 322.991,192.294 322.964,190.852 				"/>
			</g>
			<g>
				<polygon fill="#8E8C7F" points="103.44,207.16 103.686,208.637 101.986,202.921 101.739,201.444 				"/>
			</g>
			<g>
				<polygon fill="#A4A293" points="790.607,294.546 790.17,295.93 728.242,311.814 728.625,310.423 				"/>
			</g>
			<g>
				<polygon fill="#A7A595" points="511.012,306.343 510.847,307.766 495.003,311.525 495.152,310.102 				"/>
			</g>
			<g>
				<polygon fill="#959386" points="537.771,315.975 537.578,317.393 510.847,307.766 511.012,306.343 				"/>
			</g>
			<g>
				<polygon fill="#A3A192" points="495.152,310.102 495.003,311.525 489.203,320.943 489.348,319.52 				"/>
			</g>
			<g>
				<polygon fill="#8E8C7F" points="557.787,351.657 557.568,353.07 537.578,317.393 537.771,315.975 				"/>
			</g>
			<g>
				<polygon fill="#A7A495" points="489.348,319.52 489.203,320.943 372.048,348.995 372.072,347.557 				"/>
			</g>
			<g>
				<polygon fill="#8E8C7F" points="372.072,347.557 372.048,348.995 368.726,341.491 368.745,340.051 				"/>
			</g>
			<g>
				<polygon fill="#959385" points="784.785,392 784.323,393.38 776.638,414.169 777.099,412.791 				"/>
			</g>
			<g>
				<polygon fill="#A7A595" points="368.745,340.051 368.726,341.491 307.621,355.991 307.575,354.544 				"/>
			</g>
			<g>
				<polygon fill="#8E8C7F" points="588.002,447.139 587.735,448.534 538.256,357.947 538.456,356.531 				"/>
			</g>
			<g>
				<polygon fill="#9F9C8E" points="777.099,412.791 776.638,414.169 617.318,459.719 617.62,458.329 				"/>
			</g>
			<g>
				<polygon fill="#929083" points="617.62,458.329 617.318,459.719 587.735,448.534 588.002,447.139 				"/>
			</g>
			<g>
				<polygon fill="#8E8C7F" points="102.308,411.157 102.593,412.621 55.622,231.547 55.321,230.061 				"/>
			</g>
			<g>
				<polygon fill="#8F8D80" points="131.423,423.003 131.676,424.461 102.593,412.621 102.308,411.157 				"/>
			</g>
			<g>
				<polygon fill="#DED9C3" points="128.944,196.317 130.744,201.975 217.301,185.539 248.312,211.621 272.452,206.844 
					280.663,226.54 334.309,215.639 322.964,190.852 374.489,174.869 415.589,166.862 411.174,158.577 438.252,153.367 
					432.72,143.396 550.71,121.03 577.06,128.069 579.951,132.391 606.436,127.249 641.753,138.881 649.452,149.7 697.498,139.963 
					689.423,129.228 735.954,119.959 715.671,94.366 814.627,86.828 899.27,183.743 803.75,205.506 794.918,194.362 
					752.059,203.964 776.862,236.738 752.269,242.518 790.607,294.546 728.625,310.423 784.785,392 777.099,412.791 617.62,458.329 
					588.002,447.139 538.456,356.531 557.787,351.657 537.771,315.975 511.012,306.343 495.152,310.102 489.348,319.52 
					372.072,347.557 368.745,340.051 307.575,354.544 316.9,377.857 131.423,423.003 102.308,411.157 55.321,230.061 
					72.679,213.001 103.44,207.16 101.739,201.444 				"/>
			</g>
			<g>
				<polygon fill="#A6A394" points="316.9,377.857 316.938,379.301 131.676,424.461 131.423,423.003 				"/>
			</g>
		</g>
	</g>
</g>
<g id="shops">
	<g>
		<g enable-background="new    ">
			<g>
				<polygon fill="#616262" points="738.527,111.777 736.51,119.935 716.328,94.369 718.203,86.236 				"/>
			</g>
			<g>
				<polygon fill="#616262" points="782.107,166.545 779.771,174.741 766.118,157.444 768.351,149.258 				"/>
			</g>
			<g>
				<polygon fill="#606262" points="720.964,159.264 718.958,167.507 690.266,129.228 692.064,121.011 				"/>
			</g>
			<g>
				<polygon fill="#6E6E6E" points="768.351,149.258 766.118,157.444 718.958,167.507 720.964,159.264 				"/>
			</g>
			<g>
				<polygon fill="#616262" points="770.088,181.454 767.787,189.678 759.655,179.15 761.894,170.93 				"/>
			</g>
			<g>
				<polygon fill="#EBEBEB" points="698.597,132.037 719.383,159.598 670.65,169.888 650.574,141.747 				"/>
			</g>
			<g>
				<polygon fill="#9D9D9D" points="670.65,169.888 668.892,178.189 648.959,150.032 650.574,141.747 				"/>
			</g>
			<g>
				<polygon fill="#BFBFBF" points="719.383,159.598 717.384,167.842 668.892,178.189 670.65,169.888 				"/>
			</g>
			<g>
				<polygon fill="#BCBCBC" points="767.611,180.647 765.325,188.872 744.063,193.598 746.245,185.349 				"/>
			</g>
			<g>
				<polygon fill="#9F9F9F" points="746.245,185.349 744.063,193.598 736.929,184.131 739.057,175.885 				"/>
			</g>
			<g>
				<polygon fill="#EBEBEB" points="760.323,171.271 767.611,180.647 746.245,185.349 739.057,175.885 				"/>
			</g>
			<g>
				<polygon fill="#616262" points="804.57,194.774 802.063,202.981 793.313,191.895 795.751,183.692 				"/>
			</g>
			<g>
				<polygon fill="#6C6D6D" points="896.891,173.861 893.954,181.962 802.063,202.981 804.57,194.774 				"/>
			</g>
			<g>
				<polygon fill="#6C6D6D" points="795.751,183.692 793.313,191.895 761.599,199.03 763.883,190.791 				"/>
			</g>
			<g>
				<polygon fill="#616262" points="763.883,190.791 761.599,199.03 756.398,192.214 758.643,183.977 				"/>
			</g>
			<g>
				<polygon fill="#7F7F7F" points="718.203,86.236 814.226,79.29 896.891,173.861 804.57,194.774 795.751,183.692 763.883,190.791 
					758.643,183.977 770.088,181.454 761.894,170.93 782.107,166.545 768.351,149.258 720.964,159.264 692.064,121.011 
					738.527,111.777 				"/>
			</g>
			<g>
				<polygon fill="#5F6060" points="595.233,170.478 593.878,178.848 584.864,165.062 586.157,156.7 				"/>
			</g>
			<g>
				<polygon fill="#6F6F6F" points="586.157,156.7 584.864,165.062 538.715,174.519 539.766,166.104 				"/>
			</g>
			<g>
				<polygon fill="#EBEBEB" points="584.966,158.23 592.519,169.724 566.467,175.107 559.078,163.487 				"/>
			</g>
			<g>
				<polygon fill="#C0C0C0" points="592.519,169.724 591.179,178.095 565.263,183.507 566.467,175.107 				"/>
			</g>
			<g>
				<polygon fill="#9B9B9B" points="566.467,175.107 565.263,183.507 557.925,171.882 559.078,163.487 				"/>
			</g>
			<g>
				<polygon fill="#9A9A9A" points="716.364,201.376 714.314,209.667 705.907,190.929 707.882,182.648 				"/>
			</g>
			<g>
				<polygon fill="#EBEBEB" points="737.473,176.229 745.538,186.866 757.061,184.326 762.296,191.144 716.364,201.376 
					707.882,182.648 				"/>
			</g>
			<g>
				<polygon fill="#BCBCBC" points="762.296,191.144 760.019,199.385 714.314,209.667 716.364,201.376 				"/>
			</g>
			<g>
				<polygon fill="#6E6E6E" points="669.023,170.231 667.273,178.534 592.34,194.522 593.704,186.135 				"/>
			</g>
			<g>
				<polygon fill="#5F6060" points="593.704,186.135 592.34,194.522 583.609,180.996 584.911,172.615 				"/>
			</g>
			<g>
				<polygon fill="#6F6F70" points="464.781,168.132 464.14,176.617 454.551,178.549 455.139,170.053 				"/>
			</g>
			<g>
				<polygon fill="#5E5F5F" points="455.139,170.053 454.551,178.549 435.158,143.549 435.624,135.075 				"/>
			</g>
			<g>
				<polygon fill="#9C9C9C" points="660.474,202.596 658.726,210.938 652.563,201.935 654.266,193.595 				"/>
			</g>
			<g>
				<polygon fill="#BDBDBD" points="672.942,199.858 671.13,208.186 658.726,210.938 660.474,202.596 				"/>
			</g>
			<g>
				<polygon fill="#EBEBEB" points="666.676,190.905 672.942,199.858 660.474,202.596 654.266,193.595 				"/>
			</g>
			<g>
				<polygon fill="#5E5F5F" points="471.129,179.354 470.447,187.845 464.14,176.617 464.781,168.132 				"/>
			</g>
			<g>
				<polygon fill="#656666" points="539.766,166.104 538.715,174.519 523.807,197.552 524.794,189.101 				"/>
			</g>
			<g>
				<polygon fill="#EBEBEB" points="652.606,193.955 658.807,202.963 629.335,209.436 623.271,200.314 				"/>
			</g>
			<g>
				<polygon fill="#BDBDBD" points="658.807,202.963 657.067,211.306 627.749,217.81 629.335,209.436 				"/>
			</g>
			<g>
				<polygon fill="#9C9C9C" points="629.335,209.436 627.749,217.81 621.73,208.686 623.271,200.314 				"/>
			</g>
			<g>
				<polygon fill="#9D9D9D" points="697.66,229.813 695.668,238.141 681.892,218.368 683.778,210.041 				"/>
			</g>
			<g>
				<polygon fill="#5E5F5F" points="471.905,200.105 471.208,208.611 460.796,189.821 461.425,181.32 				"/>
			</g>
			<g>
				<polygon fill="#6E6F6F" points="524.794,189.101 523.807,197.552 471.208,208.611 471.905,200.105 				"/>
			</g>
			<g>
				<polygon fill="#EBEBEB" points="750.7,195.108 774.521,226.56 673.839,250.088 665.167,237.272 697.66,229.813 683.778,210.041 
									"/>
			</g>
			<g>
				<polygon fill="#B9B9B9" points="774.521,226.56 772.114,234.82 671.95,258.447 673.839,250.088 				"/>
			</g>
			<g>
				<polygon fill="#9C9C9C" points="673.839,250.088 671.95,258.447 663.346,245.632 665.167,237.272 				"/>
			</g>
		</g>
		<g enable-background="new    ">
			<g>
				<polygon fill="#BABABA" points="630.712,247.406 629.072,255.8 602.821,261.9 604.317,253.48 				"/>
			</g>
			<g>
				<polygon fill="#9A9A9A" points="604.317,253.48 602.821,261.9 590.753,242.534 592.159,234.112 				"/>
			</g>
			<g>
				<polygon fill="#EBEBEB" points="618.295,228.254 630.712,247.406 604.317,253.48 592.159,234.112 				"/>
			</g>
		</g>
		<g enable-background="new    ">
			<g>
				<polygon fill="#999999" points="418.559,158.485 418.179,167.002 413.773,158.727 414.126,150.215 				"/>
			</g>
			<g>
				<polygon fill="#999999" points="385.626,182.575 385.425,191.145 377.364,175.024 377.517,166.462 				"/>
			</g>
			<g>
				<polygon fill="#C2C2C2" points="452.72,169.23 452.146,177.727 385.425,191.145 385.626,182.575 				"/>
			</g>
			<g>
				<polygon fill="#EBEBEB" points="439.435,145.356 452.72,169.23 385.626,182.575 377.517,166.462 418.559,158.485 
					414.126,150.215 				"/>
			</g>
			<g>
				<polygon fill="#999999" points="421.24,224.681 420.825,233.246 398.673,189.806 398.949,181.249 				"/>
			</g>
			<g>
				<polygon fill="#BFBFBF" points="467.977,214.786 467.295,223.305 420.825,233.246 421.24,224.681 				"/>
			</g>
			<g>
				<polygon fill="#EBEBEB" points="444.557,172.162 467.977,214.786 421.24,224.681 398.949,181.249 				"/>
			</g>
			<g>
				<polygon fill="#888A8A" points="666.121,266.301 664.254,274.672 665.516,261.465 667.372,253.1 				"/>
			</g>
			<g>
				<polygon fill="#AFAFAF" points="419.377,225.075 418.972,233.642 406.853,250.627 407.191,242.042 				"/>
			</g>
			<g>
				<polygon fill="#9B9C9C" points="788.145,284.104 785.554,292.375 723.947,308.201 726.211,299.876 				"/>
			</g>
			<g>
				<polygon fill="#BEBEBE" points="407.191,242.042 406.853,250.627 358.357,261.182 358.404,252.553 				"/>
			</g>
			<g>
				<polygon fill="#999999" points="358.404,252.553 358.357,261.182 326.219,191.014 326.079,182.391 				"/>
			</g>
			<g>
				<polygon fill="#B9B9B9" points="574.904,273.207 573.558,281.656 525.023,293.105 526.091,284.614 				"/>
			</g>
			<g>
				<polygon fill="#888A8A" points="561.046,342.834 559.717,351.282 527.655,294.042 528.739,285.553 				"/>
			</g>
			<g>
				<polygon fill="#ABABAB" points="536.688,303.45 535.542,311.93 511.672,303.33 512.666,294.828 				"/>
			</g>
			<g>
				<polygon fill="#EBEBEB" points="532.54,237.21 544.582,257.782 563.123,253.563 574.904,273.207 526.091,284.614 
					536.688,303.45 512.666,294.828 494.632,299.077 468.99,251.279 				"/>
			</g>
			<g>
				<polygon fill="#B9B9B9" points="512.666,294.828 511.672,303.33 493.744,307.592 494.632,299.077 				"/>
			</g>
			<g>
				<polygon fill="#999999" points="494.632,299.077 493.744,307.592 468.283,259.813 468.99,251.279 				"/>
			</g>
			<g>
				<polygon fill="#8B8C8C" points="782.159,381.088 779.419,389.34 771.701,410.009 774.432,401.768 				"/>
			</g>
			<g>
				<polygon fill="#888A8A" points="589.6,434.73 588,443.077 540.524,356.152 541.737,347.691 				"/>
			</g>
			<g>
				<polygon fill="#919292" points="619.148,445.85 617.341,454.16 588,443.077 589.6,434.73 				"/>
			</g>
			<g>
				<polygon fill="#969798" points="774.432,401.768 771.701,410.009 617.341,454.16 619.148,445.85 				"/>
			</g>
			<g>
				<polygon fill="#BEBEBD" points="750.869,233.553 788.145,284.104 726.211,299.876 782.159,381.088 774.432,401.768 
					619.148,445.85 589.6,434.73 541.737,347.691 561.046,342.834 528.739,285.553 575.263,274.662 591.334,284.077 
					666.121,266.301 667.372,253.1 				"/>
			</g>
		</g>
		<g enable-background="new    ">
			<g>
				<polygon fill="#888A8A" points="106.808,198.596 108.26,207.424 106.551,201.721 105.095,192.894 				"/>
			</g>
			<g>
				<polygon fill="#A2A3A3" points="263.973,234.03 264.493,242.735 236.478,248.56 235.782,239.829 				"/>
			</g>
			<g>
				<polygon fill="#999999" points="295.725,251.253 296.058,259.936 282.371,227.049 281.964,218.365 				"/>
			</g>
			<g>
				<polygon fill="#999999" points="336.003,257.379 336.091,266.027 315.853,220.188 315.648,211.537 				"/>
			</g>
			<g>
				<polygon fill="#BFBFBF" points="328.112,244.397 328.247,253.05 296.058,259.936 295.725,251.253 				"/>
			</g>
			<g>
				<polygon fill="#EBEBEB" points="313.74,211.924 328.112,244.397 295.725,251.253 281.964,218.365 				"/>
			</g>
			<g>
				<polygon fill="#EBEBEB" points="335.582,207.496 356.468,252.971 336.003,257.379 315.648,211.537 				"/>
			</g>
			<g>
				<polygon fill="#BEBEBE" points="356.468,252.971 356.432,261.602 336.091,266.027 336.003,257.379 				"/>
			</g>
			<g>
				<polygon fill="#A1A2A3" points="293.748,251.672 294.093,260.355 273.309,264.802 272.834,256.1 				"/>
			</g>
			<g>
				<polygon fill="#888A8A" points="272.834,256.1 273.309,264.802 264.493,242.735 263.973,234.03 				"/>
			</g>
			<g>
				<polygon fill="#999999" points="447.617,292.881 447.019,301.438 437.148,281.863 437.678,273.298 				"/>
			</g>
			<g>
				<polygon fill="#BABABA" points="444.964,291.92 444.383,300.479 423.143,305.423 423.595,296.848 				"/>
			</g>
			<g>
				<polygon fill="#A9A9A9" points="493.074,299.508 492.195,308.025 486.384,317.341 487.233,308.82 				"/>
			</g>
			<g>
				<polygon fill="#B8B8B8" points="487.233,308.82 486.384,317.341 436.925,329.206 437.471,320.648 				"/>
			</g>
			<g>
				<polygon fill="#EBEBEB" points="474.592,264.98 493.074,299.508 487.233,308.82 437.471,320.648 426.245,297.818 
					447.617,292.881 437.678,273.298 				"/>
			</g>
			<g>
				<polygon fill="#999999" points="437.471,320.648 436.925,329.206 425.776,306.393 426.245,297.818 				"/>
			</g>
			<g>
				<polygon fill="#A2A3A3" points="238.328,246.519 239.011,255.25 76.057,289.424 74.308,280.557 				"/>
			</g>
			<g>
				<polygon fill="#888A8A" points="74.308,280.557 76.057,289.424 60.572,230.312 58.797,221.432 				"/>
			</g>
			<g>
				<polygon fill="#BEBEBD" points="128.263,188.539 130.06,194.191 218.581,177.423 249.61,203.471 271.821,199.087 
					293.748,251.672 272.834,256.1 263.973,234.03 235.782,239.829 238.328,246.519 74.308,280.557 58.797,221.432 76.093,204.414 
					106.808,198.596 105.095,192.894 				"/>
			</g>
			<g>
				<polygon fill="#B8B8B8" points="435.495,321.118 434.961,329.677 374.014,344.298 374.165,335.695 				"/>
			</g>
			<g>
				<polygon fill="#999999" points="374.165,335.695 374.014,344.298 348.422,286.613 348.408,277.975 				"/>
			</g>
			<g>
				<polygon fill="#EBEBEB" points="407.884,264.807 435.759,273.73 444.964,291.92 423.595,296.848 435.495,321.118 
					374.165,335.695 348.408,277.975 				"/>
			</g>
			<g>
				<polygon fill="#9D9E9F" points="368.803,328.718 368.688,337.328 305.955,352.244 305.664,343.591 				"/>
			</g>
			<g>
				<polygon fill="#888A8A" points="105.307,398.715 106.982,407.473 76.997,293.014 75.25,284.146 				"/>
			</g>
			<g>
				<polygon fill="#8C8E8E" points="134.357,410.503 135.84,419.223 106.982,407.473 105.307,398.715 				"/>
			</g>
			<g>
				<polygon fill="#9C9D9E" points="314.949,366.8 315.182,375.428 135.84,419.223 134.357,410.503 				"/>
			</g>
			<g>
				<polygon fill="#BEBEBD" points="261.006,245.431 279.914,293.137 346.429,278.412 368.803,328.718 305.664,343.591 
					314.949,366.8 134.357,410.503 105.307,398.715 75.25,284.146 				"/>
			</g>
		</g>
	</g>
</g>
<g id="landmarks-small">
	<polygon id="gap" fill="#EBEBEB" points="375.714,166.812 384.412,184.146 397.132,181.611 419.377,225.075 407.191,242.042 
		358.404,252.553 326.079,182.391 	"/>
</g>
<g id="landmarks-large">
	<polygon id="petco" fill="#7F7F7F" points="550.073,113.433 576.495,120.457 579.385,124.775 605.953,119.629 641.271,131.257 
		669.023,170.231 593.704,186.135 584.911,172.615 595.233,170.478 586.157,156.7 539.766,166.104 524.794,189.101 471.905,200.105 
		461.425,181.32 471.129,179.354 464.781,168.132 455.139,170.053 435.624,135.075 	"/>
</g>
</svg>
