<?xml version="1.0" encoding="utf-8"?>
<!-- Generator: Adobe Illustrator 16.0.0, SVG Export Plug-In . SVG Version: 6.00 Build 0)  -->
<!DOCTYPE svg PUBLIC "-//W3C//DTD SVG 1.1//EN" "http://www.w3.org/Graphics/SVG/1.1/DTD/svg11.dtd">
<svg version="1.1" id="Layer_1" xmlns="http://www.w3.org/2000/svg" xmlns:xlink="http://www.w3.org/1999/xlink" x="0px" y="0px"
	 width="1000px" height="500px" viewBox="0 0 1000 500" enable-background="new 0 0 1000 500" xml:space="preserve">
<g id="base">
	<g>
		<g enable-background="new    ">
			<g>
				<polygon fill="#8F8D80" points="735.954,110.958 735.618,112.322 715.36,86.725 715.671,85.365 				"/>
			</g>
			<g>
				<polygon fill="#8F8C80" points="697.498,130.962 697.19,132.337 689.124,121.601 689.423,120.227 				"/>
			</g>
			<g>
				<polygon fill="#8E8C7F" points="438.252,144.366 438.17,145.785 432.644,135.813 432.72,134.395 				"/>
			</g>
			<g>
				<polygon fill="#A9A697" points="899.27,174.742 898.776,176.097 803.33,197.878 803.75,196.505 				"/>
			</g>
			<g>
				<polygon fill="#8F8D80" points="803.75,196.505 803.33,197.878 794.509,186.733 794.918,185.361 				"/>
			</g>
			<g>
				<polygon fill="#AAA798" points="794.918,185.361 794.509,186.733 751.685,196.344 752.059,194.963 				"/>
			</g>
			<g>
				<polygon fill="#8E8C7F" points="415.589,157.861 415.528,159.286 411.118,151 411.174,149.576 				"/>
			</g>
			<g>
				<polygon fill="#A8A596" points="776.862,227.737 776.456,229.118 751.884,234.902 752.269,233.517 				"/>
			</g>
			<g>
				<polygon fill="#8E8C7F" points="334.309,206.638 334.325,208.082 322.991,183.293 322.964,181.851 				"/>
			</g>
			<g>
				<polygon fill="#8E8C7F" points="103.44,198.159 103.686,199.636 101.986,193.92 101.739,192.443 				"/>
			</g>
			<g>
				<polygon fill="#A4A293" points="790.607,285.545 790.17,286.928 728.242,302.814 728.625,301.422 				"/>
			</g>
			<g>
				<polygon fill="#A7A495" points="511.012,297.342 510.847,298.764 494.625,301.816 494.774,300.393 				"/>
			</g>
			<g>
				<polygon fill="#959386" points="537.771,306.973 537.578,308.391 510.847,298.764 511.012,297.342 				"/>
			</g>
			<g>
				<polygon fill="#A29F91" points="494.774,300.393 494.625,301.816 489.203,311.943 489.348,310.518 				"/>
			</g>
			<g>
				<polygon fill="#8E8C7F" points="557.787,342.656 557.568,344.07 537.578,308.391 537.771,306.973 				"/>
			</g>
			<g>
				<polygon fill="#A7A495" points="489.348,310.518 489.203,311.943 372.048,339.994 372.072,338.555 				"/>
			</g>
			<g>
				<polygon fill="#8E8C7F" points="372.072,338.555 372.048,339.994 368.726,332.49 368.745,331.05 				"/>
			</g>
			<g>
				<polygon fill="#959385" points="784.79,383.006 784.328,384.386 776.638,405.168 777.099,403.79 				"/>
			</g>
			<g>
				<polygon fill="#A7A595" points="368.745,331.05 368.726,332.49 307.621,346.99 307.575,345.544 				"/>
			</g>
			<g>
				<polygon fill="#8E8C7F" points="588.006,438.145 587.739,439.541 538.256,348.945 538.456,347.529 				"/>
			</g>
			<g>
				<polygon fill="#9F9C8E" points="777.099,403.79 776.638,405.168 617.318,450.718 617.62,449.328 				"/>
			</g>
			<g>
				<polygon fill="#929083" points="617.62,449.328 617.318,450.718 587.739,439.541 588.006,438.145 				"/>
			</g>
			<g>
				<polygon fill="#8E8C7F" points="102.308,402.156 102.593,403.62 55.622,222.546 55.321,221.06 				"/>
			</g>
			<g>
				<polygon fill="#8F8D80" points="131.425,414.01 131.678,415.468 102.593,403.62 102.308,402.156 				"/>
			</g>
			<g>
				<polygon fill="#DED9C3" points="128.944,187.316 130.744,192.974 217.301,176.538 248.312,202.62 272.452,197.843 
					280.663,217.539 334.309,206.638 322.964,181.851 374.489,165.868 415.589,157.861 411.174,149.576 438.252,144.366 
					432.72,134.395 550.71,112.029 577.06,119.068 579.951,123.39 606.436,118.248 641.753,129.88 649.452,140.699 697.498,130.962 
					689.423,120.227 735.954,110.958 715.671,85.365 814.627,77.827 899.27,174.742 803.75,196.505 794.918,185.361 
					752.059,194.963 776.862,227.737 752.269,233.517 790.607,285.545 728.625,301.422 784.79,383.006 777.099,403.79 
					617.62,449.328 588.006,438.145 538.456,347.529 557.787,342.656 537.771,306.973 511.012,297.342 494.774,300.393 
					489.348,310.518 372.072,338.555 368.745,331.05 307.575,345.544 316.903,368.864 131.425,414.01 102.308,402.156 
					55.321,221.06 72.679,204 103.44,198.159 101.739,192.443 				"/>
			</g>
			<g>
				<polygon fill="#A6A394" points="316.903,368.864 316.94,370.307 131.678,415.468 131.425,414.01 				"/>
			</g>
		</g>
	</g>
</g>
<g id="shops">
	<g>
		<g enable-background="new    ">
			<g>
				<polygon fill="#616262" points="738.527,101.777 736.51,109.935 716.328,84.369 718.203,76.236 				"/>
			</g>
			<g>
				<polygon fill="#616262" points="782.107,156.545 779.771,164.741 766.118,147.444 768.351,139.258 				"/>
			</g>
			<g>
				<polygon fill="#6D6E6E" points="768.351,139.258 766.118,147.444 718.958,157.507 720.964,149.264 				"/>
			</g>
			<g>
				<polygon fill="#606161" points="720.964,149.264 718.958,157.507 690.266,119.228 692.064,111.011 				"/>
			</g>
			<g>
				<polygon fill="#616262" points="770.088,171.454 767.787,179.678 759.655,169.15 761.894,160.93 				"/>
			</g>
			<g>
				<polygon fill="#BCBCBC" points="719.383,149.598 717.384,157.842 668.892,168.189 670.65,159.888 				"/>
			</g>
			<g>
				<polygon fill="#ECECEC" points="698.597,122.037 719.383,149.598 670.65,159.888 650.574,131.747 				"/>
			</g>
			<g>
				<polygon fill="#9C9C9C" points="670.65,159.888 668.892,168.189 648.959,140.032 650.574,131.747 				"/>
			</g>
			<g>
				<polygon fill="#BABABA" points="767.611,170.647 765.325,178.872 744.063,183.598 746.245,175.349 				"/>
			</g>
			<g>
				<polygon fill="#9D9D9D" points="746.245,175.349 744.063,183.598 736.929,174.131 739.057,165.885 				"/>
			</g>
			<g>
				<polygon fill="#ECECEC" points="760.323,161.271 767.611,170.647 746.245,175.349 739.057,165.885 				"/>
			</g>
			<g>
				<polygon fill="#6C6C6D" points="896.891,163.861 893.954,171.962 802.063,192.981 804.57,184.774 				"/>
			</g>
			<g>
				<polygon fill="#616262" points="804.57,184.774 802.063,192.981 793.313,181.895 795.751,173.692 				"/>
			</g>
			<g>
				<polygon fill="#6C6D6D" points="795.751,173.692 793.313,181.895 761.599,189.03 763.883,180.791 				"/>
			</g>
			<g>
				<polygon fill="#606262" points="763.883,180.791 761.599,189.03 756.398,182.214 758.643,173.977 				"/>
			</g>
			<g>
				<polygon fill="#9E9F9F" points="762.296,181.144 760.019,189.385 714.314,199.667 716.364,191.376 				"/>
			</g>
			<g>
				<polygon fill="#BFBFBE" points="737.473,166.229 745.538,176.866 757.061,174.326 762.296,181.144 716.364,191.376 
					707.882,172.648 				"/>
			</g>
			<g>
				<polygon fill="#898A8B" points="716.364,191.376 714.314,199.667 705.907,180.929 707.882,172.648 				"/>
			</g>
			<g>
				<polygon fill="#ECECEC" points="750.7,185.108 764.317,203.087 719.297,213.403 716.746,192.684 				"/>
			</g>
			<g>
				<polygon fill="#B8B8B8" points="764.317,203.087 761.989,211.345 717.197,221.708 719.297,213.403 				"/>
			</g>
			<g>
				<polygon fill="#999999" points="719.297,213.403 717.197,221.708 714.693,200.976 716.746,192.684 				"/>
			</g>
		</g>
		<g enable-background="new    ">
			<g>
				<polygon fill="#BFBFBF" points="590.656,125.535 589.361,133.866 554.814,140.755 555.932,132.383 				"/>
			</g>
			<g>
				<polygon fill="#9A9A9A" points="555.932,132.383 554.814,140.755 547.389,129.129 548.456,120.765 				"/>
			</g>
			<g>
				<polygon fill="#9A9A9A" points="602.64,143.358 601.263,151.702 589.361,133.866 590.656,125.535 				"/>
			</g>
			<g>
				<polygon fill="#ECECEC" points="589.499,127.009 600.726,143.746 575.08,148.945 564.091,132.028 				"/>
			</g>
			<g>
				<polygon fill="#BEBEBE" points="600.726,143.746 599.359,152.092 573.845,157.32 575.08,148.945 				"/>
			</g>
			<g>
				<polygon fill="#9A9A9A" points="575.08,148.945 573.845,157.32 562.93,140.393 564.091,132.028 				"/>
			</g>
			<g>
				<polygon fill="#9A9A9A" points="611.84,157.041 610.399,165.392 601.263,151.702 602.64,143.358 				"/>
			</g>
			<g>
				<polygon fill="#BDBDBD" points="609.14,156.29 607.715,164.642 582.025,170.007 583.317,161.625 				"/>
			</g>
			<g>
				<polygon fill="#9A9A9A" points="583.317,161.625 582.025,170.007 574.581,158.463 575.822,150.087 				"/>
			</g>
			<g>
				<polygon fill="#ECECEC" points="601.484,144.876 609.14,156.29 583.317,161.625 575.822,150.087 				"/>
			</g>
			<g>
				<polygon fill="#BCBCBC" points="669.023,160.231 667.273,168.534 609.081,180.95 610.533,172.582 				"/>
			</g>
			<g>
				<polygon fill="#9A9A9A" points="610.533,172.582 609.081,180.95 600.23,167.519 601.619,159.157 				"/>
			</g>
			<g>
				<polygon fill="#BCBCBC" points="602.09,178.422 600.678,186.803 584.66,190.238 585.987,181.84 				"/>
			</g>
			<g>
				<polygon fill="#ECECEC" points="594.74,167.204 602.09,178.422 585.987,181.84 578.734,170.545 				"/>
			</g>
			<g>
				<polygon fill="#9A9A9A" points="585.987,181.84 584.66,190.238 577.458,178.94 578.734,170.545 				"/>
			</g>
			<g>
				<polygon fill="#A3A3A3" points="678.132,195.211 676.284,203.539 675.854,204.455 677.701,196.126 				"/>
			</g>
			<g>
				<polygon fill="#9B9B9B" points="651.288,201.981 649.578,210.337 638.754,194.271 640.384,185.917 				"/>
			</g>
			<g>
				<polygon fill="#B9B9B9" points="677.701,196.126 675.854,204.455 649.578,210.337 651.288,201.981 				"/>
			</g>
			<g>
				<polygon fill="#ECECEC" points="667.5,180.044 678.132,195.211 677.701,196.126 651.288,201.981 640.384,185.917 				"/>
			</g>
			<g>
				<polygon fill="#ECECEC" points="638.704,186.281 649.595,202.356 618.804,209.182 608.171,192.894 				"/>
			</g>
			<g>
				<polygon fill="#B9B9B9" points="649.595,202.356 647.893,210.715 617.265,217.572 618.804,209.182 				"/>
			</g>
			<g>
				<polygon fill="#9A9A9A" points="618.804,209.182 617.265,217.572 606.71,201.282 608.171,192.894 				"/>
			</g>
			<g>
				<polygon fill="#B9B9B9" points="617.088,209.562 615.558,217.954 609.415,219.329 610.912,210.931 				"/>
			</g>
			<g>
				<polygon fill="#ECECEC" points="765.236,204.3 774.521,216.56 716.368,230.15 719.226,214.862 				"/>
			</g>
			<g>
				<polygon fill="#B7B7B7" points="774.521,216.56 772.114,224.82 714.256,238.467 716.368,230.15 				"/>
			</g>
			<g>
				<polygon fill="#999999" points="716.368,230.15 714.256,238.467 717.124,223.168 719.226,214.862 				"/>
			</g>
			<g>
				<polygon fill="#B9B9B9" points="610.912,210.931 609.415,219.329 591.314,223.382 592.713,214.965 				"/>
			</g>
			<g>
				<polygon fill="#9A9A9A" points="592.713,214.965 591.314,223.382 588.757,219.307 590.138,210.891 				"/>
			</g>
			<g>
				<polygon fill="#ECECEC" points="606.469,193.262 617.088,209.562 610.912,210.931 592.713,214.965 590.138,210.891 
					599.492,194.774 				"/>
			</g>
			<g>
				<polygon fill="#9A9A9A" points="617.412,220.984 615.866,229.383 610.082,220.369 611.584,211.971 				"/>
			</g>
			<g>
				<polygon fill="#B9B9B9" points="625.198,219.234 623.61,227.625 615.866,229.383 617.412,220.984 				"/>
			</g>
			<g>
				<polygon fill="#9A9A9A" points="630.992,228.112 629.362,236.503 623.61,227.625 625.198,219.234 				"/>
			</g>
			<g>
				<polygon fill="#B9B9B9" points="615.679,221.374 614.143,229.774 597.671,233.514 599.118,225.097 				"/>
			</g>
			<g>
				<polygon fill="#9A9A9A" points="599.118,225.097 597.671,233.514 592.104,224.639 593.508,216.223 				"/>
			</g>
			<g>
				<polygon fill="#ECECEC" points="609.994,212.562 615.679,221.374 599.118,225.097 593.508,216.223 				"/>
			</g>
			<g>
				<polygon fill="#B8B8B8" points="628.429,227.232 626.814,235.624 602.496,241.203 603.979,232.788 				"/>
			</g>
			<g>
				<polygon fill="#9A9A9A" points="603.979,232.788 602.496,241.203 598.471,234.789 599.924,226.372 				"/>
			</g>
			<g>
				<polygon fill="#ECECEC" points="624.294,220.884 628.429,227.232 603.979,232.788 599.924,226.372 				"/>
			</g>
			<g>
				<polygon fill="#B5B5B5" points="764.907,242.59 762.505,250.872 722.528,260.574 724.722,252.254 				"/>
			</g>
			<g>
				<polygon fill="#ECECEC" points="750.869,223.553 764.907,242.59 724.722,252.254 709.01,245.848 715.838,231.754 				"/>
			</g>
			<g>
				<polygon fill="#ABABAB" points="724.722,252.254 722.528,260.574 706.915,254.18 709.01,245.848 				"/>
			</g>
			<g>
				<polygon fill="#9A9A9A" points="632.372,244.124 630.714,252.52 621.583,238.291 623.171,229.893 				"/>
			</g>
			<g>
				<polygon fill="#ECECEC" points="621.431,230.289 629.777,243.226 613.03,247.107 604.793,234.076 				"/>
			</g>
			<g>
				<polygon fill="#B7B7B7" points="629.777,243.226 628.135,251.624 611.479,255.52 613.03,247.107 				"/>
			</g>
			<g>
				<polygon fill="#9A9A9A" points="613.03,247.107 611.479,255.52 603.305,242.492 604.793,234.076 				"/>
			</g>
			<g>
				<polygon fill="#A3A3A3" points="677.083,197.43 675.237,205.76 647.266,264.911 649.035,256.525 				"/>
			</g>
			<g>
				<polygon fill="#B4B4B4" points="734.155,265.626 731.885,273.941 719.94,276.893 722.146,268.566 				"/>
			</g>
			<g>
				<polygon fill="#A8A8A8" points="722.146,268.566 719.94,276.893 697.454,266.313 699.514,257.969 				"/>
			</g>
			<g>
				<polygon fill="#B6B6B6" points="649.035,256.525 647.266,264.911 621.268,271.12 622.894,262.712 				"/>
			</g>
			<g>
				<polygon fill="#9A9A9A" points="622.894,262.712 621.268,271.12 612.304,256.833 613.861,248.421 				"/>
			</g>
			<g>
				<polygon fill="#B3B3B3" points="788.145,274.104 785.554,282.375 744.984,292.652 747.36,284.346 				"/>
			</g>
			<g>
				<polygon fill="#9B9B9B" points="747.36,284.346 744.984,292.652 731.885,273.941 734.155,265.626 				"/>
			</g>
			<g>
				<polygon fill="#B3B3B3" points="745.723,284.975 743.354,293.283 699.692,304.348 701.824,296.003 				"/>
			</g>
			<g>
				<polygon fill="#ECECEC" points="698.318,259.201 721.871,270.252 733.349,267.4 745.723,284.975 701.824,296.003 
					684.739,270.507 				"/>
			</g>
			<g>
				<polygon fill="#9A9A9A" points="701.824,296.003 699.692,304.348 682.744,278.865 684.739,270.507 				"/>
			</g>
		</g>
		<g enable-background="new    ">
			<g>
				<polygon fill="#B3B3B3" points="699.915,296.262 697.795,304.607 661.203,313.879 663.12,305.504 				"/>
			</g>
			<g>
				<polygon fill="#999999" points="663.12,305.504 661.203,313.879 657.661,292.096 659.527,283.716 				"/>
			</g>
			<g>
				<polygon fill="#ECECEC" points="683.412,271.585 699.915,296.262 663.12,305.504 659.527,283.716 				"/>
			</g>
		</g>
		<g enable-background="new    ">
			<g>
				<path fill="#ECECEC" d="M622.636,282.34c1.375-0.333,2.816-0.438,4.246-0.342c1.429,0.095,2.849,0.391,4.178,0.859
					c1.331,0.468,2.573,1.106,3.648,1.896c1.077,0.788,1.987,1.722,2.651,2.774c0.666,1.054,1.021,2.127,1.096,3.168
					s-0.134,2.048-0.6,2.966c-0.469,0.919-1.188,1.749-2.143,2.435c-0.953,0.688-2.136,1.229-3.521,1.57
					c-1.39,0.342-2.846,0.452-4.288,0.355c-1.446-0.098-2.881-0.396-4.229-0.871c-1.343-0.479-2.594-1.129-3.674-1.928
					c-1.078-0.803-1.984-1.744-2.64-2.812c-0.654-1.063-0.996-2.144-1.058-3.185c-0.058-1.041,0.167-2.043,0.646-2.953
					c0.478-0.907,1.21-1.729,2.166-2.4C620.081,283.203,621.26,282.673,622.636,282.34z"/>
				<path fill="#A5A5A5" d="M638.354,292.253l-1.754,8.397c-0.019,0.09-0.039,0.179-0.063,0.267
					c-0.024,0.088-0.048,0.177-0.076,0.265c-0.027,0.086-0.057,0.174-0.089,0.26s-0.065,0.175-0.101,0.261l1.752-8.396
					c0.032-0.086,0.066-0.173,0.102-0.259s0.061-0.173,0.089-0.261c0.027-0.087,0.053-0.18,0.076-0.268
					C638.313,292.432,638.334,292.342,638.354,292.253"/>
				<path fill="#A9A9A9" d="M638.024,293.301l-1.753,8.397c-0.048,0.106-0.097,0.213-0.146,0.319
					c-0.052,0.104-0.107,0.209-0.166,0.312s-0.12,0.204-0.186,0.304c-0.066,0.1-0.137,0.199-0.205,0.297l1.749-8.396
					c0.068-0.099,0.141-0.196,0.206-0.298c0.063-0.102,0.128-0.2,0.186-0.305c0.059-0.104,0.114-0.207,0.167-0.313
					S637.979,293.409,638.024,293.301"/>
				<path fill="#ADADAD" d="M637.319,294.532l-1.749,8.397c-0.083,0.11-0.17,0.225-0.265,0.334
					c-0.091,0.105-0.187,0.215-0.282,0.317c-0.103,0.104-0.204,0.208-0.313,0.312c-0.108,0.101-0.22,0.195-0.336,0.295l1.744-8.399
					c0.117-0.097,0.229-0.194,0.338-0.294c0.106-0.1,0.213-0.203,0.313-0.309c0.103-0.104,0.195-0.211,0.287-0.319
					C637.148,294.756,637.235,294.645,637.319,294.532"/>
				<path fill="#B1B1B1" d="M636.118,295.787l-1.744,8.398c-0.252,0.209-0.524,0.403-0.813,0.59
					c-0.289,0.186-0.598,0.354-0.924,0.517s-0.67,0.304-1.031,0.433c-0.357,0.131-0.735,0.244-1.134,0.344
					c-0.292,0.072-0.587,0.138-0.885,0.188c-0.298,0.054-0.597,0.097-0.899,0.126c-0.302,0.032-0.604,0.057-0.905,0.066
					c-0.308,0.013-0.609,0.016-0.914,0.01l1.702-8.402c0.307,0.008,0.609,0.004,0.919-0.01c0.306-0.012,0.607-0.033,0.914-0.064
					c0.303-0.03,0.604-0.071,0.9-0.125c0.3-0.053,0.6-0.112,0.894-0.188c0.396-0.098,0.773-0.212,1.14-0.342
					c0.363-0.129,0.709-0.273,1.036-0.434c0.328-0.158,0.638-0.33,0.929-0.517C635.592,296.191,635.864,295.995,636.118,295.787"/>
				<path fill="#ADADAD" d="M628.568,298.052l-1.702,8.404c-0.188-0.004-0.375-0.013-0.563-0.022
					c-0.187-0.012-0.375-0.023-0.562-0.045c-0.188-0.018-0.373-0.039-0.563-0.063c-0.186-0.025-0.372-0.055-0.556-0.084l1.688-8.406
					c0.188,0.032,0.373,0.061,0.563,0.085c0.187,0.024,0.375,0.047,0.563,0.063c0.188,0.02,0.376,0.033,0.565,0.045
					C628.191,298.04,628.379,298.047,628.568,298.052"/>
				<path fill="#A9A9A9" d="M626.314,297.834l-1.688,8.406c-0.161-0.027-0.321-0.057-0.481-0.09
					c-0.156-0.032-0.315-0.067-0.477-0.104s-0.316-0.077-0.472-0.118c-0.157-0.043-0.313-0.087-0.467-0.134l1.676-8.407
					c0.156,0.047,0.313,0.09,0.47,0.133c0.158,0.043,0.316,0.082,0.477,0.119c0.158,0.037,0.318,0.072,0.479,0.105
					C625.991,297.777,626.152,297.807,626.314,297.834"/>
				<path fill="#A5A5A5" d="M624.405,297.387l-1.677,8.408c-0.154-0.047-0.311-0.096-0.464-0.146
					c-0.149-0.051-0.304-0.104-0.45-0.162c-0.15-0.055-0.303-0.11-0.447-0.174c-0.148-0.06-0.294-0.123-0.439-0.187l1.664-8.41
					c0.146,0.065,0.293,0.127,0.442,0.188c0.146,0.06,0.299,0.119,0.45,0.175c0.147,0.056,0.304,0.11,0.457,0.161
					C624.094,297.291,624.249,297.34,624.405,297.387"/>
				<path fill="#A1A1A1" d="M622.593,296.716l-1.664,8.41c-0.164-0.073-0.325-0.149-0.481-0.228
					c-0.16-0.078-0.317-0.159-0.477-0.242c-0.151-0.084-0.309-0.17-0.46-0.26c-0.147-0.088-0.299-0.183-0.441-0.274l1.648-8.411
					c0.147,0.094,0.297,0.186,0.448,0.275c0.152,0.089,0.306,0.176,0.463,0.259s0.315,0.165,0.479,0.243
					C622.265,296.566,622.428,296.643,622.593,296.716"/>
				<path fill="#9D9D9D" d="M620.717,295.711l-1.648,8.411c-0.35-0.224-0.681-0.459-0.992-0.709
					c-0.315-0.25-0.614-0.513-0.896-0.789c-0.276-0.276-0.541-0.563-0.779-0.863c-0.24-0.299-0.461-0.61-0.656-0.932
					c-0.236-0.386-0.433-0.772-0.585-1.159c-0.155-0.387-0.271-0.773-0.352-1.156c-0.075-0.384-0.113-0.765-0.119-1.139
					c-0.003-0.375,0.032-0.744,0.104-1.105l1.617-8.414c-0.069,0.36-0.104,0.729-0.104,1.104s0.043,0.755,0.121,1.14
					c0.078,0.383,0.195,0.771,0.354,1.156c0.152,0.387,0.353,0.775,0.59,1.16c0.197,0.322,0.42,0.633,0.662,0.934
					c0.241,0.299,0.506,0.588,0.788,0.863c0.278,0.275,0.583,0.539,0.896,0.789C620.036,295.251,620.369,295.488,620.717,295.711"/>
			</g>
		</g>
		<g enable-background="new    ">
			<g>
				<polygon fill="#BEBEBE" points="523.559,159.389 522.594,167.823 496.003,173.272 496.825,164.809 				"/>
			</g>
			<g>
				<polygon fill="#999999" points="455.139,160.053 454.551,168.549 435.158,133.549 435.624,125.075 				"/>
			</g>
			<g>
				<polygon fill="#BFBFBF" points="464.781,158.132 464.14,166.617 454.551,168.549 455.139,160.053 				"/>
			</g>
			<g>
				<polygon fill="#A4A4A4" points="522.555,160.904 521.594,169.339 518.671,180.553 519.624,172.104 				"/>
			</g>
			<g>
				<polygon fill="#999999" points="471.129,169.354 470.447,177.845 464.14,166.617 464.781,158.132 				"/>
			</g>
			<g>
				<polygon fill="#999999" points="508.369,181.158 507.472,189.625 498.416,174.097 499.252,165.636 				"/>
			</g>
			<g>
				<polygon fill="#B6B6B6" points="519.624,172.104 518.671,180.553 507.472,189.625 508.369,181.158 				"/>
			</g>
			<g>
				<polygon fill="#ECECEC" points="522.555,160.904 519.624,172.104 508.369,181.158 499.252,165.636 				"/>
			</g>
			<g>
				<polygon fill="#BDBDBD" points="507.329,182.735 506.438,191.204 471.208,198.611 471.905,190.105 				"/>
			</g>
			<g>
				<polygon fill="#999999" points="471.905,190.105 471.208,198.611 460.796,179.821 461.425,171.32 				"/>
			</g>
		</g>
		<g enable-background="new    ">
			<g>
				<polygon fill="#BABABA" points="522.614,215.692 521.611,224.17 508.216,227.116 509.143,218.625 				"/>
			</g>
			<g>
				<polygon fill="#999999" points="509.143,218.625 508.216,227.116 502.815,217.619 503.704,209.128 				"/>
			</g>
			<g>
				<polygon fill="#ECECEC" points="517.106,206.248 522.614,215.692 509.143,218.625 503.704,209.128 				"/>
			</g>
		</g>
		<g enable-background="new    ">
			<g>
				<polygon fill="#999999" points="418.559,148.485 418.179,157.002 413.773,148.727 414.126,140.215 				"/>
			</g>
			<g>
				<polygon fill="#BFBFBF" points="452.72,159.23 452.146,167.727 385.425,181.145 385.626,172.575 				"/>
			</g>
			<g>
				<polygon fill="#ECECEC" points="439.435,135.356 452.72,159.23 385.626,172.575 377.517,156.462 418.559,148.485 
					414.126,140.215 				"/>
			</g>
			<g>
				<polygon fill="#999999" points="385.626,172.575 385.425,181.145 377.364,165.024 377.517,156.462 				"/>
			</g>
			<g>
				<polygon fill="#999999" points="414.732,202 414.358,210.565 398.673,179.806 398.949,171.249 				"/>
			</g>
			<g>
				<polygon fill="#BDBDBD" points="461.141,192.345 460.504,200.862 414.358,210.565 414.732,202 				"/>
			</g>
			<g>
				<polygon fill="#ECECEC" points="444.557,162.162 461.141,192.345 414.732,202 398.949,171.249 				"/>
			</g>
			<g>
				<polygon fill="#999999" points="475.505,225.949 474.768,234.472 469.539,224.842 470.241,216.319 				"/>
			</g>
			<g>
				<polygon fill="#BABABA" points="507.342,219.017 506.425,227.51 474.768,234.472 475.505,225.949 				"/>
			</g>
			<g>
				<polygon fill="#ECECEC" points="501.912,209.513 507.342,219.017 475.505,225.949 470.241,216.319 				"/>
			</g>
			<g>
				<polygon fill="#B1B1B1" points="412.883,202.385 412.519,210.951 400.419,227.611 400.715,219.026 				"/>
			</g>
			<g>
				<polygon fill="#999999" points="459.845,229.358 459.198,237.896 454.051,228.204 454.663,219.666 				"/>
			</g>
			<g>
				<polygon fill="#BABABA" points="473.671,226.348 472.944,234.873 459.198,237.896 459.845,229.358 				"/>
			</g>
			<g>
				<polygon fill="#ECECEC" points="468.416,216.711 473.671,226.348 459.845,229.358 454.663,219.666 				"/>
			</g>
			<g>
				<polygon fill="#999999" points="444.215,232.761 443.658,241.314 438.593,231.56 439.117,223.006 				"/>
			</g>
			<g>
				<polygon fill="#ECECEC" points="452.974,220.029 458.146,229.728 444.215,232.761 439.117,223.006 				"/>
			</g>
			<g>
				<polygon fill="#BABABA" points="458.146,229.728 457.509,238.268 443.658,241.314 444.215,232.761 				"/>
			</g>
			<g>
				<polygon fill="#BCBCBC" points="400.715,219.026 400.419,227.611 352.278,237.909 352.288,229.278 				"/>
			</g>
			<g>
				<polygon fill="#999999" points="352.288,229.278 352.278,237.909 326.219,181.014 326.079,172.391 				"/>
			</g>
			<g>
				<polygon fill="#999999" points="512.666,284.828 511.672,293.33 493.006,259.152 493.865,250.639 				"/>
			</g>
			<g>
				<polygon fill="#A7A7A7" points="539.374,294.409 538.211,302.887 511.672,293.33 512.666,284.828 				"/>
			</g>
			<g>
				<polygon fill="#5F6060" points="669.865,322.133 667.885,330.498 658.788,316.139 660.693,307.761 				"/>
			</g>
			<g>
				<polygon fill="#B4B4B4" points="595.185,297.027 593.684,305.459 546.204,317.158 547.428,308.689 				"/>
			</g>
			<g>
				<polygon fill="#999999" points="547.428,308.689 546.204,317.158 538.211,302.887 539.374,294.409 				"/>
			</g>
			<g>
				<polygon fill="#999999" points="560.209,331.35 558.887,339.8 547.011,318.598 548.241,310.13 				"/>
			</g>
			<g>
				<polygon fill="#B3B3B3" points="617.816,316.882 616.156,325.291 558.887,339.8 560.209,331.35 				"/>
			</g>
			<g>
				<polygon fill="#ECECEC" points="596.031,298.439 617.816,316.882 560.209,331.35 548.241,310.13 				"/>
			</g>
			<g>
				<polygon fill="#606161" points="782.159,371.088 779.419,379.34 771.701,400.009 774.432,391.768 				"/>
			</g>
			<g>
				<polygon fill="#5E6060" points="589.6,424.73 588,433.077 540.524,346.152 541.737,337.691 				"/>
			</g>
			<g>
				<polygon fill="#676768" points="774.432,391.768 771.701,400.009 617.341,444.16 619.148,435.85 				"/>
			</g>
			<g>
				<polygon fill="#626364" points="619.148,435.85 617.341,444.16 588,433.077 589.6,424.73 				"/>
			</g>
		</g>
		<g enable-background="new    ">
			<g>
				<polygon fill="#888A8A" points="106.808,188.596 108.26,197.424 106.551,191.721 105.095,182.894 				"/>
			</g>
			<g>
				<polygon fill="#A1A2A2" points="279.488,207.474 279.91,216.16 257.588,220.726 257.03,212.019 				"/>
			</g>
			<g>
				<polygon fill="#999999" points="330.056,233.985 330.179,242.637 315.853,210.188 315.648,201.537 				"/>
			</g>
			<g>
				<polygon fill="#BCBCBC" points="350.367,229.685 350.368,238.318 330.179,242.637 330.056,233.985 				"/>
			</g>
			<g>
				<polygon fill="#ECECEC" points="335.582,197.496 350.367,229.685 330.056,233.985 315.648,201.537 				"/>
			</g>
			<g>
				<polygon fill="#BCBCBC" points="325.186,227.786 325.338,236.44 293.272,243.24 292.923,234.557 				"/>
			</g>
			<g>
				<polygon fill="#999999" points="292.923,234.557 293.272,243.24 282.371,217.049 281.964,208.365 				"/>
			</g>
			<g>
				<polygon fill="#ECECEC" points="313.74,201.924 325.186,227.786 292.923,234.557 281.964,208.365 				"/>
			</g>
			<g>
				<polygon fill="#888A8A" points="272.834,246.1 273.309,254.802 260.054,221.622 259.511,212.917 				"/>
			</g>
			<g>
				<polygon fill="#A0A1A2" points="261.998,224.436 262.53,233.143 236.478,238.56 235.782,229.829 				"/>
			</g>
			<g>
				<polygon fill="#9FA0A1" points="293.748,241.672 294.093,250.356 273.309,254.802 272.834,246.1 				"/>
			</g>
			<g>
				<polygon fill="#BFBFBE" points="280.024,208.759 293.748,241.672 272.834,246.1 259.511,212.917 				"/>
			</g>
			<g>
				<polygon fill="#999999" points="447.617,282.881 447.019,291.438 437.148,271.863 437.678,263.298 				"/>
			</g>
			<g>
				<polygon fill="#B7B7B7" points="444.964,281.92 444.383,290.479 423.143,295.423 423.595,286.848 				"/>
			</g>
			<g>
				<polygon fill="#AAAAAA" points="493.074,289.508 492.195,298.025 486.384,307.341 487.233,298.82 				"/>
			</g>
			<g>
				<polygon fill="#B6B6B6" points="487.233,298.82 486.384,307.341 436.925,319.206 437.471,310.648 				"/>
			</g>
			<g>
				<polygon fill="#999999" points="437.471,310.648 436.925,319.206 425.776,296.393 426.245,287.818 				"/>
			</g>
			<g>
				<polygon fill="#A0A1A1" points="238.328,236.519 239.011,245.25 76.057,279.424 74.308,270.557 				"/>
			</g>
			<g>
				<polygon fill="#888A8A" points="74.308,270.557 76.057,279.424 60.572,220.312 58.797,211.432 				"/>
			</g>
			<g>
				<polygon fill="#BFBFBE" points="128.263,178.539 130.06,184.191 218.581,167.423 249.61,193.471 271.821,189.087 
					279.488,207.474 257.03,212.019 261.998,224.436 235.782,229.829 238.328,236.519 74.308,270.557 58.797,211.432 
					76.093,194.414 106.808,188.596 105.095,182.894 				"/>
			</g>
			<g>
				<polygon fill="#999999" points="374.165,325.695 374.014,334.298 348.422,276.613 348.408,267.975 				"/>
			</g>
			<g>
				<polygon fill="#B6B6B6" points="435.495,311.118 434.961,319.677 374.014,334.298 374.165,325.695 				"/>
			</g>
			<g>
				<polygon fill="#6B6C6C" points="368.803,318.718 368.688,327.328 305.955,342.244 305.664,333.591 				"/>
			</g>
			<g>
				<polygon fill="#5E6060" points="105.307,388.715 106.982,397.473 76.997,283.014 75.25,274.146 				"/>
			</g>
			<g>
				<polygon fill="#606161" points="134.357,400.503 135.84,409.223 106.982,397.473 105.307,388.715 				"/>
			</g>
			<g>
				<polygon fill="#6A6B6B" points="314.949,356.8 315.182,365.428 135.84,409.223 134.357,400.503 				"/>
			</g>
		</g>
	</g>
</g>
<g id="landmarks-small">
	<polygon id="massimodutti" fill="#ECECEC" points="605.953,109.629 641.271,121.257 669.023,160.231 610.533,172.582 
		601.619,159.157 611.84,157.041 602.64,143.358 590.656,125.535 555.932,132.383 548.456,120.765 	"/>
	<polygon id="sephora" fill="#ECECEC" points="708.029,247.371 723.872,253.99 765.855,243.876 788.145,274.104 747.36,284.346 
		734.155,265.626 722.146,268.566 699.514,257.969 	"/>
	<polygon id="zara" fill="#ECECEC" points="495.798,113.696 523.559,159.389 496.825,164.809 507.329,182.735 471.905,190.105 
		461.425,171.32 471.129,169.354 464.781,158.132 455.139,160.053 435.624,125.075 	"/>
	<polygon id="adidas" fill="#ECECEC" points="375.714,156.812 384.412,174.146 397.132,171.611 412.883,202.385 400.715,219.026 
		352.288,229.278 326.079,172.391 	"/>
	<polygon id="starbucks" fill="#ECECEC" points="540.149,240.209 544.582,247.782 563.123,243.562 595.185,297.027 547.428,308.689 
		539.374,294.409 512.666,284.828 493.865,250.639 512.339,246.475 	"/>
	<polygon id="walgreens" fill="#ECECEC" points="474.592,254.98 493.074,289.508 487.233,298.82 437.471,310.648 426.245,287.818 
		447.617,282.881 437.678,263.298 	"/>
	<polygon id="geox" fill="#ECECEC" points="407.884,254.807 435.759,263.73 444.964,281.92 423.595,286.848 435.495,311.118 
		374.165,325.695 348.408,267.975 	"/>
	<polygon id="hnm" fill="#ECECEC" points="677.083,197.43 649.035,256.525 622.894,262.712 613.861,248.421 632.372,244.124 
		623.171,229.893 630.992,228.112 625.198,219.234 617.412,220.984 611.584,211.971 617.763,210.599 622.911,209.456 
		650.926,203.237 651.982,203.002 	"/>
</g>
<g id="landmarks-large">
	<polygon id="sears" fill="#818181" points="718.203,76.236 814.226,69.29 896.891,163.861 804.57,184.774 795.751,173.692 
		763.883,180.791 758.643,173.977 770.088,171.454 761.894,160.93 782.107,156.545 768.351,139.258 720.964,149.264 
		692.064,111.011 738.527,101.777 	"/>
	<polygon id="jcpenney" fill="#818181" points="727.033,291.068 782.159,371.088 774.432,391.768 619.148,435.85 589.6,424.73 
		541.737,337.691 622.876,317.277 631.786,331.891 669.865,322.133 660.693,307.761 	"/>
	<polygon id="macys" fill="#818181" points="261.006,235.431 279.914,283.137 346.429,268.412 368.803,318.718 305.664,333.591 
		314.949,356.8 134.357,400.503 105.307,388.715 75.25,274.146 	"/>
</g>
</svg>
