<?xml version="1.0" encoding="utf-8"?>
<!-- Generator: Adobe Illustrator 16.0.0, SVG Export Plug-In . SVG Version: 6.00 Build 0)  -->
<!DOCTYPE svg PUBLIC "-//W3C//DTD SVG 1.1//EN" "http://www.w3.org/Graphics/SVG/1.1/DTD/svg11.dtd">
<svg version="1.1" id="Layer_1" xmlns="http://www.w3.org/2000/svg" xmlns:xlink="http://www.w3.org/1999/xlink" x="0px" y="0px"
	 width="1000px" height="500px" viewBox="0 0 1000 500" enable-background="new 0 0 1000 500" xml:space="preserve">
<g id="base">
	<g>
		<g enable-background="new    ">
			<g>
				<polygon fill="#959386" points="832.325,158.106 831.889,159.47 824.856,177.08 825.292,175.712 				"/>
			</g>
			<g>
				<polygon fill="#A8A596" points="825.292,175.712 824.856,177.08 811.169,180.195 811.594,178.824 				"/>
			</g>
			<g>
				<polygon fill="#DCD7C2" points="811.595,178.824 825.292,175.712 823.285,180.735 820.265,181.368 				"/>
			</g>
			<g>
				<polygon fill="#8E8C80" points="800.98,175.709 800.566,177.082 795.467,170.653 795.876,169.281 				"/>
			</g>
			<g>
				<polygon fill="#9E9B8E" points="800.98,175.709 800.565,177.082 794.555,175.317 794.964,173.945 				"/>
			</g>
			<g>
				<polygon fill="#9E9B8E" points="811.594,178.824 811.169,180.195 800.566,177.082 800.98,175.709 				"/>
			</g>
			<g>
				<polygon fill="#959386" points="825.292,175.712 824.856,177.08 822.849,182.105 823.285,180.735 				"/>
			</g>
			<g>
				<polygon fill="#8D8A7E" points="439.896,128.35 439.814,129.768 436.313,123.47 436.391,122.053 				"/>
			</g>
			<g>
				<polygon fill="#A8A596" points="823.285,180.735 822.849,182.105 819.832,182.738 820.265,181.368 				"/>
			</g>
			<g>
				<polygon fill="#9E9B8E" points="820.265,181.368 819.832,182.738 811.17,180.195 811.595,178.824 				"/>
			</g>
			<g>
				<polygon fill="#DCD7C2" points="436.392,122.052 439.897,128.35 435.561,129.182 432.072,122.874 				"/>
			</g>
			<g>
				<polygon fill="#8D8A7E" points="435.561,129.182 435.483,130.602 431.997,124.292 432.072,122.874 				"/>
			</g>
			<g>
				<polygon fill="#AFAC9D" points="439.897,128.35 439.815,129.768 435.483,130.602 435.561,129.182 				"/>
			</g>
			<g>
				<polygon fill="#8D8A7E" points="437.606,132.879 437.526,134.299 435.483,130.601 435.561,129.182 				"/>
			</g>
			<g>
				<polygon fill="#A9A697" points="795.876,169.281 795.467,170.653 752.725,180.218 753.098,178.838 				"/>
			</g>
			<g>
				<polygon fill="#A9A597" points="794.964,173.945 794.555,175.317 755.645,184.075 756.021,182.695 				"/>
			</g>
			<g>
				<polygon fill="#8D8B7F" points="756.021,182.695 755.645,184.075 752.724,180.218 753.097,178.838 				"/>
			</g>
			<g>
				<polygon fill="#DCD7C2" points="756.021,182.695 753.097,178.838 795.875,169.282 800.98,175.709 794.964,173.945 				"/>
			</g>
			<g>
				<polygon fill="#A9A597" points="756.023,182.694 755.646,184.074 751.644,184.975 752.018,183.594 				"/>
			</g>
			<g>
				<polygon fill="#8D8A7E" points="417.288,141.796 417.226,143.22 414.807,138.691 414.867,137.267 				"/>
			</g>
			<g>
				<polygon fill="#DCD7C2" points="414.866,137.268 417.287,141.796 412.878,142.653 410.469,138.117 				"/>
			</g>
			<g>
				<polygon fill="#8D8A7E" points="412.878,142.653 412.82,144.078 410.413,139.541 410.469,138.117 				"/>
			</g>
			<g>
				<polygon fill="#AFAB9C" points="417.287,141.796 417.225,143.22 412.82,144.078 412.878,142.653 				"/>
			</g>
			<g>
				<polygon fill="#8D8A7E" points="414.886,146.436 414.826,147.861 412.819,144.078 412.876,142.653 				"/>
			</g>
			<g>
				<polygon fill="#A7A495" points="773.804,212.444 773.401,213.825 752.947,218.626 753.332,217.242 				"/>
			</g>
			<g>
				<polygon fill="#A6A395" points="776.857,216.488 776.45,217.87 755.958,222.708 756.347,221.323 				"/>
			</g>
			<g>
				<polygon fill="#8D8B7F" points="756.347,221.323 755.958,222.708 752.947,218.626 753.332,217.241 				"/>
			</g>
			<g>
				<polygon fill="#DCD7C2" points="756.347,221.323 753.332,217.241 773.802,212.444 776.857,216.488 				"/>
			</g>
			<g>
				<polygon fill="#999689" points="577.391,197.57 577.174,198.979 533.551,184.022 533.725,182.609 				"/>
			</g>
			<g>
				<polygon fill="#A6A395" points="756.346,221.323 755.957,222.708 751.826,223.683 752.211,222.298 				"/>
			</g>
			<g>
				<polygon fill="#A3A092" points="533.725,182.609 533.551,184.022 520.561,204.386 520.725,202.969 				"/>
			</g>
			<g>
				<polygon fill="#AAA798" points="520.725,202.969 520.561,204.386 489.13,211.186 489.265,209.763 				"/>
			</g>
			<g>
				<polygon fill="#8D8A7E" points="336.236,190.359 336.251,191.803 326.517,170.599 326.493,169.157 				"/>
			</g>
			<g>
				<polygon fill="#8D8A7E" points="331.511,191.317 331.531,192.761 322.068,171.984 322.04,170.541 				"/>
			</g>
			<g>
				<polygon fill="#ADAA9B" points="336.235,190.359 336.25,191.803 331.531,192.761 331.511,191.317 				"/>
			</g>
			<g>
				<polygon fill="#DCD7C2" points="326.493,169.157 336.235,190.359 331.511,191.317 322.04,170.541 				"/>
			</g>
			<g>
				<polygon fill="#8D8A7E" points="333.382,195.418 333.399,196.862 331.531,192.761 331.512,191.316 				"/>
			</g>
			<g>
				<polygon fill="#8D8A7E" points="482.516,227.115 482.386,228.54 474.605,214.328 474.727,212.903 				"/>
			</g>
			<g>
				<polygon fill="#AAA798" points="474.727,212.903 474.605,214.328 434.084,223.095 434.166,221.664 				"/>
			</g>
			<g>
				<polygon fill="#8D8A7E" points="105.869,181.853 106.114,183.33 105.638,181.742 105.394,180.266 				"/>
			</g>
			<g enable-background="new    ">
				<g>
					<g>
						<defs>
							<path id="SVGID_1_" d="M429.356,229.18l0.077-1.433c0.051-0.914,0.354-1.743,0.787-2.473s0.992-1.362,1.555-1.885
								c0.562-0.522,1.125-0.936,1.565-1.227c0.44-0.292,0.757-0.462,0.825-0.498l-0.082,1.432
								c-0.068,0.037-0.385,0.207-0.824,0.499c-0.439,0.292-1.003,0.705-1.563,1.229c-0.563,0.523-1.121,1.156-1.554,1.886
								C429.71,227.438,429.406,228.266,429.356,229.18z"/>
						</defs>
						<clipPath id="SVGID_2_">
							<use xlink:href="#SVGID_1_"  overflow="visible"/>
						</clipPath>
						<g clip-path="url(#SVGID_2_)" enable-background="new    ">
							<path fill="#A4A193" d="M434.166,221.664l-0.082,1.432c-0.041,0.022-0.175,0.094-0.372,0.212
								c-0.197,0.118-0.458,0.283-0.754,0.492s-0.628,0.462-0.968,0.756s-0.687,0.63-1.013,1.004l0.08-1.432
								c0.326-0.374,0.675-0.71,1.014-1.004c0.34-0.294,0.672-0.547,0.969-0.756s0.558-0.374,0.755-0.492
								C433.991,221.758,434.125,221.686,434.166,221.664"/>
							<path fill="#A09D8F" d="M431.057,224.129l-0.08,1.432c-0.098,0.113-0.193,0.229-0.287,0.348
								c-0.095,0.119-0.185,0.242-0.272,0.369c-0.088,0.127-0.172,0.256-0.251,0.389s-0.156,0.269-0.226,0.408l0.078-1.432
								c0.071-0.139,0.147-0.276,0.227-0.408c0.08-0.133,0.164-0.262,0.252-0.389c0.088-0.126,0.179-0.249,0.272-0.369
								S430.959,224.241,431.057,224.129"/>
							<path fill="#9C998C" d="M430.019,225.642l-0.078,1.432c-0.05,0.097-0.097,0.196-0.142,0.297
								c-0.044,0.1-0.086,0.202-0.124,0.306c-0.039,0.103-0.074,0.208-0.106,0.315c-0.033,0.107-0.063,0.214-0.088,0.324
								l0.077-1.433c0.026-0.109,0.056-0.217,0.089-0.324c0.032-0.107,0.067-0.211,0.106-0.315c0.039-0.103,0.08-0.205,0.125-0.306
								C429.923,225.838,429.97,225.74,430.019,225.642"/>
							<path fill="#989589" d="M429.559,226.883l-0.077,1.433c-0.017,0.07-0.031,0.14-0.046,0.211
								c-0.014,0.071-0.025,0.142-0.035,0.214c-0.012,0.072-0.021,0.145-0.027,0.218s-0.013,0.147-0.018,0.221l0.078-1.433
								c0.004-0.074,0.011-0.148,0.018-0.221c0.007-0.073,0.016-0.146,0.026-0.218c0.012-0.072,0.023-0.144,0.036-0.214
								C429.528,227.023,429.543,226.953,429.559,226.883"/>
						</g>
					</g>
				</g>
			</g>
			<g>
				<polygon fill="#DCD7C2" points="105.393,180.266 105.869,181.853 100.781,182.817 100.311,181.226 				"/>
			</g>
			<g>
				<polygon fill="#8D8A7E" points="100.781,182.817 101.031,184.294 100.56,182.704 100.311,181.226 				"/>
			</g>
			<g>
				<polygon fill="#B0AC9D" points="105.869,181.853 106.113,183.33 101.031,184.294 100.781,182.817 				"/>
			</g>
			<g>
				<polygon fill="#8D8A7E" points="102.008,186.964 102.257,188.442 101.031,184.294 100.782,182.817 				"/>
			</g>
			<g>
				<polygon fill="#A3A092" points="787.392,270.148 786.959,271.532 729.377,286.26 729.759,284.868 				"/>
			</g>
			<g>
				<polygon fill="#A3A092" points="790.609,274.523 790.172,275.907 732.473,290.751 732.859,289.359 				"/>
			</g>
			<g>
				<polygon fill="#DCD7C2" points="732.859,289.359 729.759,284.868 787.392,270.148 790.609,274.523 				"/>
			</g>
			<g>
				<polygon fill="#8D8A7F" points="732.859,289.359 732.473,290.751 729.377,286.259 729.759,284.868 				"/>
			</g>
			<g>
				<polygon fill="#A3A092" points="732.859,289.359 732.473,290.751 728.104,291.875 728.487,290.482 				"/>
			</g>
			<g enable-background="new    ">
				<g>
					<g>
						<defs>
							<path id="SVGID_3_" d="M643.834,292.504l-0.3,1.404c0.117-0.549,0.178-1.11,0.179-1.682c0.002-0.569-0.055-1.147-0.172-1.73
								c-0.117-0.582-0.295-1.169-0.535-1.755c-0.24-0.587-0.542-1.171-0.909-1.753c-0.958-1.516-2.266-2.859-3.813-3.992
								c-1.545-1.131-3.327-2.053-5.235-2.725c-1.906-0.672-3.94-1.097-5.99-1.233c-2.049-0.138-4.114,0.014-6.087,0.493
								c-1.264,0.307-2.417,0.73-3.445,1.252c-1.031,0.521-1.938,1.14-2.71,1.835c-0.772,0.696-1.408,1.468-1.896,2.297
								c-0.487,0.83-0.825,1.715-0.999,2.636l0.268-1.408c0.175-0.92,0.512-1.807,1-2.636c0.486-0.827,1.123-1.601,1.896-2.297
								c0.772-0.694,1.68-1.313,2.712-1.835c1.031-0.521,2.186-0.945,3.45-1.252c1.973-0.479,4.041-0.629,6.093-0.492
								c2.051,0.137,4.087,0.561,5.996,1.234c1.91,0.673,3.695,1.595,5.241,2.726c1.548,1.134,2.859,2.478,3.818,3.994
								c0.366,0.581,0.67,1.166,0.909,1.752c0.24,0.586,0.418,1.173,0.536,1.755c0.117,0.583,0.174,1.161,0.172,1.731
								C644.012,291.395,643.951,291.956,643.834,292.504z"/>
						</defs>
						<clipPath id="SVGID_4_">
							<use xlink:href="#SVGID_3_"  overflow="visible"/>
						</clipPath>
						<g clip-path="url(#SVGID_4_)" enable-background="new    ">
							<path fill="#908E82" d="M643.834,292.504l-0.3,1.404c0.117-0.549,0.178-1.11,0.179-1.682c0.002-0.569-0.055-1.147-0.172-1.73
								c-0.117-0.582-0.295-1.169-0.535-1.755c-0.24-0.587-0.542-1.171-0.909-1.753c-0.43-0.68-0.93-1.325-1.49-1.934
								c-0.561-0.606-1.182-1.176-1.853-1.703c-0.671-0.526-1.391-1.012-2.152-1.453c-0.76-0.439-1.561-0.834-2.391-1.182
								l0.288-1.404c0.831,0.347,1.633,0.742,2.394,1.183c0.763,0.44,1.483,0.926,2.154,1.453c0.672,0.526,1.293,1.096,1.854,1.702
								c0.562,0.608,1.063,1.254,1.493,1.935c0.366,0.581,0.67,1.166,0.909,1.752c0.24,0.586,0.418,1.173,0.536,1.755
								c0.117,0.583,0.174,1.161,0.172,1.731C644.012,291.395,643.951,291.956,643.834,292.504"/>
							<path fill="#949285" d="M634.5,279.313l-0.288,1.404c-0.237-0.099-0.476-0.193-0.718-0.285
								c-0.242-0.091-0.485-0.178-0.731-0.261s-0.494-0.162-0.743-0.235c-0.249-0.076-0.501-0.146-0.753-0.211l0.284-1.406
								c0.253,0.066,0.505,0.138,0.754,0.212c0.25,0.075,0.498,0.153,0.744,0.235c0.246,0.084,0.49,0.17,0.732,0.262
								C634.023,279.118,634.263,279.213,634.5,279.313"/>
							<path fill="#989589" d="M631.551,278.318l-0.284,1.406c-0.22-0.059-0.44-0.113-0.663-0.164
								c-0.222-0.051-0.444-0.099-0.669-0.143c-0.224-0.044-0.447-0.085-0.674-0.123c-0.225-0.038-0.451-0.072-0.678-0.104
								l0.282-1.405c0.227,0.03,0.453,0.065,0.679,0.103c0.226,0.038,0.45,0.079,0.674,0.123c0.225,0.045,0.447,0.092,0.669,0.143
								C631.11,278.207,631.331,278.261,631.551,278.318"/>
							<path fill="#9C998C" d="M628.866,277.786l-0.282,1.405c-0.223-0.029-0.446-0.057-0.67-0.08
								c-0.224-0.024-0.448-0.045-0.672-0.062c-0.225-0.017-0.449-0.03-0.673-0.04c-0.226-0.01-0.449-0.016-0.674-0.019l0.278-1.406
								c0.226,0.003,0.45,0.009,0.675,0.019c0.226,0.011,0.45,0.023,0.675,0.041c0.224,0.017,0.448,0.037,0.673,0.061
								C628.419,277.729,628.643,277.756,628.866,277.786"/>
							<path fill="#A09D8F" d="M626.174,277.585l-0.279,1.406c-0.255-0.003-0.511-0.003-0.766,0.004
								c-0.255,0.006-0.51,0.017-0.764,0.032c-0.254,0.015-0.508,0.035-0.761,0.06s-0.507,0.056-0.758,0.089l0.276-1.406
								c0.252-0.035,0.505-0.064,0.758-0.09s0.508-0.045,0.762-0.06c0.256-0.015,0.511-0.026,0.766-0.032
								C625.663,277.583,625.918,277.582,626.174,277.585"/>
							<path fill="#A4A193" d="M623.122,277.77l-0.276,1.407c-0.158,0.022-0.314,0.046-0.472,0.071s-0.313,0.053-0.47,0.083
								c-0.156,0.028-0.313,0.062-0.467,0.094c-0.155,0.033-0.311,0.069-0.465,0.106c-0.878,0.213-1.702,0.482-2.47,0.803
								s-1.478,0.689-2.126,1.104c-0.647,0.412-1.234,0.869-1.755,1.36c-0.521,0.493-0.975,1.021-1.358,1.58l0.269-1.407
								c0.384-0.559,0.838-1.088,1.359-1.58c0.521-0.492,1.106-0.947,1.756-1.361c0.647-0.412,1.358-0.781,2.127-1.102
								c0.768-0.32,1.593-0.59,2.473-0.803c0.154-0.037,0.31-0.073,0.464-0.105c0.155-0.033,0.312-0.065,0.467-0.095
								c0.156-0.028,0.313-0.057,0.471-0.083C622.807,277.816,622.964,277.792,623.122,277.77"/>
							<path fill="#A09D8F" d="M613.533,282.971l-0.269,1.407c-0.11,0.161-0.215,0.325-0.313,0.49
								c-0.1,0.166-0.192,0.334-0.278,0.504c-0.087,0.17-0.167,0.343-0.242,0.517c-0.073,0.174-0.143,0.352-0.204,0.529l0.268-1.408
								c0.062-0.178,0.13-0.354,0.204-0.529c0.073-0.174,0.155-0.347,0.242-0.517s0.18-0.338,0.277-0.504
								C613.317,283.294,613.422,283.131,613.533,282.971"/>
							<path fill="#9C998C" d="M612.494,285.01l-0.268,1.408c-0.031,0.093-0.063,0.186-0.091,0.279s-0.056,0.188-0.081,0.281
								c-0.024,0.096-0.049,0.189-0.07,0.285c-0.022,0.096-0.042,0.191-0.061,0.287l0.268-1.408c0.018-0.096,0.038-0.191,0.06-0.287
								c0.022-0.094,0.045-0.189,0.07-0.285c0.024-0.094,0.052-0.188,0.081-0.281C612.431,285.195,612.461,285.104,612.494,285.01"
								/>
						</g>
					</g>
				</g>
			</g>
			<g>
				<polygon fill="#A5A294" points="512.624,280.746 512.458,282.168 496.283,285.2 496.432,283.775 				"/>
			</g>
			<g>
				<polygon fill="#949285" points="539.343,290.348 539.149,291.766 512.458,282.168 512.624,280.746 				"/>
			</g>
			<g>
				<polygon fill="#8D8A7E" points="496.844,284.544 496.694,285.968 496.282,285.2 496.432,283.775 				"/>
			</g>
			<g>
				<polygon fill="#949285" points="537.208,296.111 537.015,297.529 510.231,287.87 510.396,286.448 				"/>
			</g>
			<g>
				<polygon fill="#A6A395" points="510.396,286.448 510.231,287.87 494.378,291.708 494.526,290.283 				"/>
			</g>
			<g>
				<polygon fill="#A19E90" points="496.432,283.775 496.283,285.2 490.876,295.291 491.021,293.867 				"/>
			</g>
			<g>
				<polygon fill="#A29F91" points="494.526,290.283 494.378,291.708 488.528,301.109 488.672,299.686 				"/>
			</g>
			<g>
				<polygon fill="#8D8A7E" points="559.335,325.879 559.115,327.292 539.149,291.766 539.343,290.348 				"/>
			</g>
			<g>
				<polygon fill="#8D8A7E" points="554.528,327.087 554.313,328.501 537.015,297.529 537.208,296.111 				"/>
			</g>
			<g>
				<polygon fill="#A3A092" points="559.335,325.879 559.115,327.292 554.313,328.501 554.528,327.087 				"/>
			</g>
			<g>
				<polygon fill="#8D8A7E" points="557.238,331.934 557.02,333.348 554.313,328.501 554.528,327.087 				"/>
			</g>
			<g>
				<polygon fill="#A6A395" points="491.021,293.867 490.876,295.291 374.019,323.189 374.043,321.751 				"/>
			</g>
			<g>
				<polygon fill="#8D8A7E" points="374.043,321.751 374.019,323.189 370.694,315.711 370.715,314.271 				"/>
			</g>
			<g>
				<polygon fill="#A6A394" points="488.672,299.686 488.528,301.109 371.074,329.314 371.095,327.875 				"/>
			</g>
			<g>
				<polygon fill="#8D8A7E" points="371.095,327.875 371.074,329.314 367.751,321.779 367.769,320.34 				"/>
			</g>
			<g>
				<polygon fill="#949185" points="783.941,371.232 783.48,372.611 777.71,388.191 778.171,386.814 				"/>
			</g>
			<g>
				<polygon fill="#A6A395" points="370.715,314.271 370.694,315.711 309.759,330.129 309.714,328.682 				"/>
			</g>
			<g>
				<polygon fill="#949185" points="784.739,372.395 784.276,373.773 776.552,394.652 777.014,393.273 				"/>
			</g>
			<g>
				<polygon fill="#8D8A7E" points="311.713,333.66 311.756,335.105 309.758,330.129 309.713,328.684 				"/>
			</g>
			<g>
				<polygon fill="#A6A395" points="367.769,320.34 367.751,321.779 311.756,335.105 311.713,333.66 				"/>
			</g>
			<g>
				<polygon fill="#A6A395" points="311.714,333.66 311.757,335.105 306.486,336.361 306.438,334.914 				"/>
			</g>
			<g>
				<path fill="#DCD7C2" d="M735.917,99.282l41.006-8.192l55.402,67.015l-7.033,17.606l-13.698,3.112l-10.614-3.114l-5.104-6.428
					l-42.777,9.557l2.926,3.856l-4.007,0.9l21.786,28.85l-20.472,4.798l3.014,4.082l-4.135,0.975l35.18,47.852l-57.633,14.719
					l3.101,4.492l-4.373,1.123l55.455,80.75l-5.771,15.58L619.1,432.096l-29.559-11.14l-46.822-85.351l14.52-3.672l-2.71-4.847
					l4.807-1.208l-19.992-35.531l-26.72-9.602l-16.191,3.029l-5.411,10.092l-116.978,27.884l-3.328-7.479l-61.001,14.41l2,4.979
					l-5.277,1.254l7.279,18.281l-179.64,43.598l-29.057-11.809L58.144,205.645l13.024-12.808l30.84-5.872l-1.226-4.147l5.088-0.963
					l-0.476-1.588l22.192-4.193l1.795,5.68l86.771-16.522l31.049,26.18l24.2-4.801l8.205,19.767l53.776-10.958l-1.87-4.101
					l4.725-0.957l-9.743-21.202l47.2-14.674l41.192-8.047l-2.009-3.783l4.411-0.857l-2.421-4.528l22.739-4.388l-2.045-3.697
					l4.334-0.832l-3.505-6.297l88.104-16.747l17.021,5.275l4.906,7.671l59.724-11.628l35.37,11.667l7.711,10.863l48.152-9.787
					l15.507-3.152l7.12-13.755L735.917,99.282z M531.061,216.426l29.101,10.131l17.229-28.987l-43.666-14.962l-13,20.36
					l-31.46,6.795l7.902,14.126L531.061,216.426 M482.516,227.115l-7.79-14.212l-40.561,8.76c-0.084,0.045-0.548,0.295-1.155,0.725
					c-0.606,0.43-1.357,1.042-2.016,1.812c-0.658,0.771-1.223,1.701-1.455,2.767c-0.233,1.067-0.133,2.271,0.54,3.589
					c0.674,1.319,1.706,2.327,2.881,3.095c1.176,0.769,2.496,1.298,3.744,1.663c1.249,0.364,2.427,0.563,3.32,0.672
					c0.893,0.109,1.501,0.127,1.611,0.13L482.516,227.115 M635.107,300.23c1.981-0.496,3.671-1.281,5.026-2.276
					c1.354-0.994,2.377-2.197,3.032-3.527c0.653-1.327,0.939-2.782,0.822-4.284c-0.117-1.498-0.637-3.043-1.592-4.557
					c-0.959-1.516-2.27-2.861-3.818-3.994c-1.546-1.132-3.331-2.053-5.241-2.726c-1.909-0.673-3.945-1.097-5.996-1.234
					c-2.051-0.137-4.12,0.015-6.093,0.492c-1.975,0.479-3.68,1.244-5.068,2.218c-1.389,0.975-2.46,2.159-3.163,3.473
					c-0.704,1.317-1.038,2.766-0.952,4.265c0.087,1.503,0.595,3.057,1.575,4.582c0.997,1.552,2.321,2.927,3.874,4.085
					c1.556,1.16,3.339,2.102,5.252,2.787c1.915,0.686,3.958,1.115,6.031,1.248s4.173-0.029,6.202-0.524
					c0.009-0.002,0.018-0.004,0.027-0.007c0.009-0.003,0.018-0.004,0.026-0.007s0.019-0.005,0.026-0.007
					C635.087,300.232,635.098,300.232,635.107,300.23"/>
			</g>
			<g>
				<polygon fill="#DCD7C2" points="537.208,296.111 510.396,286.448 494.526,290.283 488.672,299.686 371.095,327.875 
					367.769,320.34 311.713,333.66 309.713,328.684 370.714,314.271 374.042,321.751 491.023,293.866 496.844,284.544 
					496.432,283.775 512.239,280.045 512.624,280.746 539.343,290.348 559.335,325.879 554.528,327.087 				"/>
			</g>
			<g>
				<polygon fill="#8D8A7E" points="589.541,420.955 589.273,422.352 542.515,337.021 542.719,335.605 				"/>
			</g>
			<g>
				<polygon fill="#9D9B8D" points="778.171,386.814 777.71,388.191 618.798,433.486 619.1,432.096 				"/>
			</g>
			<g>
				<polygon fill="#918F82" points="619.1,432.096 618.798,433.486 589.273,422.352 589.541,420.955 				"/>
			</g>
			<g>
				<polygon fill="#8D8A7E" points="587.463,427.84 587.197,429.235 537.66,338.251 537.86,336.835 				"/>
			</g>
			<g>
				<polygon fill="#DCD7C2" points="619.1,432.096 778.171,386.814 783.941,371.232 784.739,372.395 777.014,393.273 
					617.141,439.066 587.463,427.84 537.86,336.835 542.719,335.605 589.541,420.955 				"/>
			</g>
			<g>
				<polygon fill="#918E82" points="617.141,439.066 616.84,440.454 587.197,429.235 587.463,427.84 				"/>
			</g>
			<g>
				<polygon fill="#9D9A8D" points="777.014,393.273 776.552,394.652 616.84,440.454 617.141,439.066 				"/>
			</g>
			<g>
				<polygon fill="#8D8A7E" points="105.019,384.984 105.301,386.45 58.442,207.13 58.144,205.644 				"/>
			</g>
			<g>
				<polygon fill="#8D8A7E" points="100.576,391.843 100.864,393.307 54.043,211.464 53.739,209.978 				"/>
			</g>
			<g>
				<polygon fill="#8E8B7F" points="134.076,396.792 134.326,398.251 105.301,386.45 105.019,384.984 				"/>
			</g>
			<g>
				<polygon fill="#A5A294" points="313.716,353.195 313.757,354.639 134.326,398.251 134.076,396.792 				"/>
			</g>
			<g>
				<polygon fill="#DCD7C2" points="105.018,384.984 134.077,396.792 313.715,353.195 315.759,358.328 129.749,403.736 
					100.576,391.843 53.739,209.978 58.143,205.645 				"/>
			</g>
			<g>
				<polygon fill="#A5A294" points="315.759,358.328 315.798,359.771 130.004,405.193 129.749,403.736 				"/>
			</g>
			<g>
				<polygon fill="#8E8B7F" points="129.749,403.736 130.004,405.193 100.864,393.307 100.576,391.843 				"/>
			</g>
		</g>
	</g>
</g>
<g id="shops">
	<g>
		<g enable-background="new    ">
			<g>
				<polygon fill="#9C9C9C" points="612.271,147.468 610.841,155.822 596.857,134.813 598.189,126.471 				"/>
			</g>
			<g>
				<polygon fill="#616262" points="764.396,171.232 762.121,179.474 735.501,144.509 737.576,136.283 				"/>
			</g>
			<g>
				<polygon fill="#BFBFBF" points="658.543,145.713 656.868,154.023 649.313,155.62 650.95,147.301 				"/>
			</g>
			<g>
				<polygon fill="#606161" points="671.123,150.315 669.375,158.618 649.472,130.437 651.077,122.15 				"/>
			</g>
			<g>
				<polygon fill="#6E6E6E" points="737.576,136.283 735.501,144.509 669.375,158.618 671.123,150.315 				"/>
			</g>
			<g>
				<polygon fill="#6B6C6C" points="821.515,171.501 818.939,179.691 793.808,172.345 796.237,164.14 				"/>
			</g>
			<g>
				<polygon fill="#606161" points="830.506,149.128 827.93,157.285 818.939,179.691 821.515,171.501 				"/>
			</g>
			<g>
				<polygon fill="#EBEBEB" points="589.963,117.41 601.171,134.162 575.496,139.367 564.526,122.435 				"/>
			</g>
			<g>
				<polygon fill="#9B9B9B" points="575.496,139.367 574.271,147.744 563.376,130.802 564.526,122.435 				"/>
			</g>
			<g>
				<polygon fill="#C1C1C1" points="601.171,134.162 599.815,142.51 574.271,147.744 575.496,139.367 				"/>
			</g>
			<g>
				<polygon fill="#BCBCBC" points="756.689,163.6 754.468,171.84 744.58,174.038 746.753,165.787 				"/>
			</g>
			<g>
				<polygon fill="#9F9F9F" points="746.753,165.787 744.58,174.038 737.456,164.562 739.574,156.314 				"/>
			</g>
			<g>
				<polygon fill="#999999" points="440.877,124.304 440.392,132.787 435.515,123.958 435.97,115.481 				"/>
			</g>
			<g>
				<polygon fill="#6C6D6D" points="796.237,164.14 793.808,172.345 762.121,179.474 764.396,171.232 				"/>
			</g>
			<g>
				<polygon fill="#C0C0C0" points="609.571,146.716 608.156,155.071 582.438,160.442 583.719,152.058 				"/>
			</g>
			<g>
				<polygon fill="#BCBCBC" points="762.807,171.586 760.54,179.829 714.783,190.123 716.823,181.83 				"/>
			</g>
			<g>
				<polygon fill="#9B9B9B" points="583.719,152.058 582.438,160.442 575.007,148.888 576.237,140.509 				"/>
			</g>
			<g>
				<polygon fill="#EBEBEB" points="601.927,135.292 609.571,146.716 583.719,152.058 576.237,140.509 				"/>
			</g>
			<g>
				<polygon fill="#9A9A9A" points="522.109,143.665 521.169,152.096 508.905,131.752 509.763,123.333 				"/>
			</g>
			<g>
				<polygon fill="#C1C1C1" points="562.298,135.588 561.148,143.973 521.169,152.096 522.109,143.665 				"/>
			</g>
			<g>
				<polygon fill="#999999" points="447.126,135.541 446.602,144.032 440.392,132.787 440.877,124.304 				"/>
			</g>
			<g>
				<polygon fill="#C3C3C3" points="509.763,123.333 508.905,131.752 446.602,144.032 447.126,135.541 				"/>
			</g>
			<g>
				<polygon fill="#BFBFBF" points="655.378,153.64 653.71,161.961 609.497,171.394 610.938,163.023 				"/>
			</g>
			<g>
				<polygon fill="#9B9B9B" points="610.938,163.023 609.497,171.394 600.661,157.951 602.039,149.586 				"/>
			</g>
			<g>
				<polygon fill="#999999" points="418.231,137.754 417.867,146.273 414.087,139.151 414.429,130.636 				"/>
			</g>
			<g>
				<polygon fill="#9A9A9A" points="716.823,181.83 714.783,190.123 706.399,171.369 708.364,163.086 				"/>
			</g>
			<g>
				<polygon fill="#EBEBEB" points="737.989,156.658 746.043,167.306 757.579,164.762 762.807,171.586 716.823,181.83 
					708.364,163.086 				"/>
			</g>
			<g>
				<polygon fill="#EBEBEB" points="561.583,149.365 566.766,157.551 550.569,160.906 545.459,152.665 				"/>
			</g>
			<g>
				<polygon fill="#C0C0C0" points="566.766,157.551 565.571,165.956 549.461,169.329 550.569,160.906 				"/>
			</g>
			<g>
				<polygon fill="#9A9A9A" points="550.569,160.906 549.461,169.329 544.385,161.084 545.459,152.665 				"/>
			</g>
			<g>
				<polygon fill="#C1C1C1" points="523.916,149.823 522.963,158.259 496.341,163.714 497.152,155.249 				"/>
			</g>
			<g>
				<polygon fill="#999999" points="455.44,150.491 454.864,158.989 447.274,145.247 447.801,136.756 				"/>
			</g>
			<g>
				<polygon fill="#C2C2C2" points="465.093,148.567 464.465,157.055 454.864,158.989 455.44,150.491 				"/>
			</g>
			<g>
				<polygon fill="#999999" points="471.427,159.8 470.758,168.292 464.465,157.055 465.093,148.567 				"/>
			</g>
			<g enable-background="new    ">
				<g>
					<g>
						<defs>
							<path id="SVGID_5_" d="M669.938,187.241l-1.794,8.339c-0.052,0.24-0.146,0.47-0.28,0.685
								c-0.136,0.215-0.312,0.415-0.525,0.595c-0.214,0.18-0.465,0.34-0.752,0.475c-0.287,0.135-0.609,0.245-0.964,0.324
								c-0.574,0.128-1.179,0.166-1.783,0.123c-0.604-0.043-1.205-0.166-1.771-0.358c-0.565-0.192-1.096-0.452-1.556-0.77
								c-0.46-0.318-0.849-0.692-1.136-1.113c-0.108-0.158-0.197-0.317-0.268-0.476c-0.071-0.159-0.125-0.317-0.161-0.474
								c-0.036-0.157-0.056-0.312-0.058-0.465s0.013-0.303,0.043-0.449l1.74-8.346c-0.03,0.146-0.045,0.296-0.042,0.449
								c0.002,0.153,0.022,0.308,0.058,0.465c0.037,0.157,0.092,0.315,0.162,0.474c0.072,0.159,0.162,0.318,0.271,0.476
								c0.288,0.42,0.681,0.795,1.143,1.113c0.463,0.318,0.995,0.579,1.564,0.771c0.568,0.192,1.174,0.316,1.781,0.359
								c0.606,0.044,1.216,0.007,1.792-0.121c0.356-0.079,0.681-0.189,0.969-0.323c0.288-0.134,0.541-0.294,0.756-0.474
								s0.391-0.379,0.527-0.594C669.791,187.71,669.886,187.48,669.938,187.241z"/>
						</defs>
						<clipPath id="SVGID_6_">
							<use xlink:href="#SVGID_5_"  overflow="visible"/>
						</clipPath>
						<g clip-path="url(#SVGID_6_)" enable-background="new    ">
							<polyline fill="#8E8F90" points="669.938,187.241 668.145,195.58 668.142,195.592 668.139,195.605 668.136,195.618 
								668.133,195.631 669.926,187.292 669.929,187.279 669.932,187.266 669.935,187.253 669.938,187.241 							"/>
							<path fill="#909192" d="M669.926,187.292l-1.793,8.339c-0.01,0.041-0.021,0.081-0.033,0.121
								c-0.012,0.04-0.025,0.08-0.041,0.119c-0.015,0.039-0.03,0.078-0.048,0.117c-0.017,0.039-0.036,0.077-0.055,0.115l1.793-8.34
								c0.021-0.038,0.038-0.076,0.055-0.114c0.018-0.039,0.033-0.077,0.048-0.117c0.016-0.039,0.028-0.079,0.041-0.119
								S669.916,187.332,669.926,187.292"/>
							<path fill="#939495" d="M669.749,187.762l-1.793,8.34c-0.019,0.037-0.039,0.073-0.062,0.11
								c-0.021,0.037-0.044,0.072-0.066,0.107c-0.024,0.035-0.048,0.07-0.074,0.105c-0.025,0.034-0.053,0.068-0.081,0.102
								l1.792-8.34c0.028-0.033,0.055-0.067,0.081-0.102c0.026-0.034,0.051-0.069,0.074-0.105c0.022-0.036,0.046-0.071,0.067-0.107
								S669.73,187.799,669.749,187.762"/>
							<path fill="#969797" d="M669.465,188.185l-1.792,8.34c-0.03,0.036-0.062,0.072-0.095,0.107
								c-0.033,0.035-0.067,0.07-0.102,0.104c-0.035,0.034-0.072,0.067-0.11,0.1s-0.077,0.065-0.117,0.096l1.79-8.341
								c0.041-0.031,0.08-0.063,0.118-0.096c0.038-0.033,0.075-0.066,0.109-0.1c0.036-0.034,0.07-0.068,0.104-0.104
								C669.403,188.257,669.434,188.222,669.465,188.185"/>
							<path fill="#999A9A" d="M669.039,188.592l-1.79,8.341c-0.053,0.041-0.108,0.081-0.165,0.12
								c-0.057,0.039-0.116,0.076-0.177,0.113c-0.062,0.036-0.124,0.071-0.189,0.105c-0.064,0.034-0.132,0.066-0.201,0.097
								l1.786-8.342c0.069-0.031,0.138-0.063,0.202-0.096c0.065-0.034,0.129-0.068,0.19-0.105c0.061-0.036,0.121-0.074,0.178-0.112
								C668.93,188.673,668.986,188.633,669.039,188.592"/>
							<path fill="#9B9C9D" d="M668.303,189.025l-1.786,8.342c-0.066,0.03-0.137,0.059-0.208,0.086
								c-0.07,0.027-0.144,0.053-0.219,0.078c-0.075,0.025-0.15,0.047-0.229,0.069c-0.078,0.021-0.158,0.041-0.24,0.06
								c-0.104,0.023-0.209,0.044-0.315,0.061c-0.105,0.017-0.212,0.032-0.319,0.043c-0.108,0.011-0.216,0.02-0.323,0.026
								c-0.108,0.006-0.217,0.009-0.326,0.009l1.775-8.344c0.109,0,0.219-0.003,0.328-0.009c0.108-0.006,0.217-0.014,0.324-0.026
								c0.108-0.011,0.216-0.026,0.321-0.043c0.106-0.017,0.212-0.037,0.316-0.061c0.082-0.018,0.162-0.038,0.24-0.059
								c0.079-0.021,0.155-0.044,0.23-0.069c0.075-0.024,0.148-0.05,0.22-0.077C668.166,189.083,668.235,189.055,668.303,189.025"/>
							<path fill="#999A9A" d="M666.113,189.454l-1.775,8.344c-0.089,0-0.177-0.001-0.266-0.004s-0.179-0.008-0.267-0.015
								c-0.088-0.007-0.177-0.015-0.266-0.025c-0.089-0.01-0.177-0.022-0.265-0.036l1.769-8.345
								c0.089,0.014,0.177,0.026,0.266,0.036c0.089,0.01,0.179,0.019,0.268,0.026c0.089,0.007,0.179,0.012,0.268,0.015
								C665.935,189.453,666.024,189.455,666.113,189.454"/>
							<path fill="#969797" d="M665.044,189.373l-1.769,8.345c-0.067-0.01-0.135-0.021-0.2-0.034
								c-0.066-0.013-0.133-0.025-0.199-0.039c-0.065-0.014-0.132-0.029-0.197-0.045s-0.131-0.033-0.195-0.05l1.764-8.345
								c0.065,0.018,0.131,0.035,0.197,0.05c0.065,0.016,0.132,0.031,0.198,0.045c0.066,0.014,0.134,0.027,0.2,0.039
								C664.91,189.351,664.976,189.363,665.044,189.373"/>
							<path fill="#939495" d="M664.247,189.204l-1.764,8.345c-0.061-0.016-0.119-0.033-0.179-0.051
								c-0.059-0.018-0.117-0.036-0.177-0.056c-0.058-0.019-0.117-0.039-0.174-0.06c-0.058-0.021-0.115-0.042-0.172-0.064
								l1.76-8.346c0.057,0.022,0.115,0.044,0.173,0.064c0.059,0.02,0.117,0.041,0.175,0.06c0.06,0.019,0.118,0.038,0.179,0.056
								C664.127,189.171,664.188,189.188,664.247,189.204"/>
							<path fill="#909192" d="M663.542,188.973l-1.76,8.346c-0.059-0.023-0.115-0.046-0.172-0.07
								c-0.058-0.024-0.113-0.049-0.169-0.074c-0.057-0.025-0.111-0.051-0.166-0.078c-0.056-0.027-0.109-0.054-0.162-0.082
								l1.756-8.346c0.054,0.028,0.107,0.056,0.163,0.082c0.055,0.026,0.11,0.053,0.167,0.078c0.056,0.025,0.112,0.05,0.17,0.074
								C663.426,188.927,663.484,188.951,663.542,188.973"/>
							<path fill="#8E8F90" d="M662.868,188.668l-1.756,8.346c-0.063-0.032-0.122-0.066-0.183-0.1
								c-0.06-0.034-0.119-0.069-0.177-0.105c-0.058-0.036-0.115-0.073-0.172-0.11c-0.056-0.038-0.111-0.076-0.166-0.115
								l1.752-8.347c0.055,0.039,0.11,0.078,0.167,0.115c0.057,0.038,0.114,0.074,0.173,0.11c0.058,0.036,0.118,0.071,0.178,0.105
								C662.745,188.603,662.806,188.636,662.868,188.668"/>
							<path fill="#8B8C8D" d="M662.167,188.238l-1.752,8.347c-0.104-0.076-0.205-0.154-0.301-0.236
								c-0.097-0.082-0.188-0.166-0.275-0.253c-0.087-0.087-0.169-0.177-0.247-0.27c-0.077-0.092-0.148-0.188-0.216-0.285
								c-0.108-0.158-0.197-0.317-0.269-0.476c-0.07-0.159-0.125-0.317-0.16-0.474c-0.036-0.157-0.056-0.312-0.058-0.465
								s0.013-0.303,0.043-0.449l1.74-8.346c-0.03,0.146-0.045,0.296-0.042,0.449c0.002,0.153,0.022,0.308,0.058,0.465
								c0.037,0.157,0.092,0.315,0.162,0.474c0.072,0.159,0.162,0.318,0.271,0.476c0.066,0.098,0.139,0.193,0.217,0.285
								c0.078,0.092,0.161,0.182,0.248,0.27c0.088,0.087,0.18,0.172,0.277,0.253C661.961,188.084,662.063,188.162,662.167,188.238"
								/>
						</g>
					</g>
				</g>
			</g>
			<g>
				<path fill="#BEBEBD" d="M663.216,183.244c0.577-0.127,1.185-0.163,1.789-0.12c0.605,0.043,1.207,0.165,1.774,0.355
					c0.566,0.19,1.098,0.448,1.559,0.763c0.462,0.315,0.855,0.688,1.146,1.106c0.29,0.419,0.449,0.844,0.49,1.254
					c0.04,0.41-0.038,0.806-0.226,1.165s-0.484,0.682-0.878,0.948c-0.394,0.265-0.886,0.473-1.464,0.601
					c-0.577,0.128-1.186,0.164-1.792,0.121c-0.607-0.044-1.212-0.167-1.781-0.359c-0.569-0.192-1.102-0.453-1.563-0.771
					c-0.464-0.318-0.855-0.693-1.144-1.113c-0.288-0.42-0.445-0.846-0.483-1.256c-0.036-0.41,0.046-0.804,0.235-1.161
					c0.19-0.357,0.488-0.677,0.882-0.94C662.151,183.575,662.641,183.37,663.216,183.244z"/>
			</g>
			<g>
				<polygon fill="#ADADAD" points="522.909,151.339 521.959,159.777 507.792,180.082 508.677,171.612 				"/>
			</g>
			<g>
				<polygon fill="#EBEBEB" points="522.909,151.339 508.677,171.612 499.579,156.076 				"/>
			</g>
			<g>
				<polygon fill="#9A9A9A" points="508.677,171.612 507.792,180.082 498.755,164.54 499.579,156.076 				"/>
			</g>
			<g>
				<polygon fill="#BABABA" points="764.795,193.549 762.477,201.81 717.633,212.185 719.724,203.878 				"/>
			</g>
			<g>
				<polygon fill="#999999" points="719.724,203.878 717.633,212.185 715.16,191.433 717.203,183.139 				"/>
			</g>
			<g>
				<polygon fill="#C2C2C2" points="453.021,149.667 452.459,158.166 385.661,171.6 385.848,163.028 				"/>
			</g>
			<g>
				<polygon fill="#B9B9B9" points="774.986,207.035 772.589,215.296 714.664,228.96 716.765,220.64 				"/>
			</g>
			<g>
				<polygon fill="#999999" points="385.848,163.028 385.661,171.6 377.621,155.464 377.761,146.899 				"/>
			</g>
			<g>
				<polygon fill="#999999" points="472.169,180.57 471.484,189.078 461.096,170.27 461.712,161.767 				"/>
			</g>
			<g>
				<polygon fill="#BFBFBF" points="507.634,173.191 506.754,181.662 471.484,189.078 472.169,180.57 				"/>
			</g>
			<g>
				<polygon fill="#999999" points="716.765,220.64 714.664,228.96 717.558,213.646 719.65,205.338 				"/>
			</g>
			<g>
				<polygon fill="#EBEBEB" points="765.713,194.764 774.986,207.035 716.765,220.64 719.65,205.338 				"/>
			</g>
			<g>
				<polygon fill="#BBBBBB" points="623.652,209.602 622.087,217.997 597.694,223.531 599.127,215.113 				"/>
			</g>
			<g>
				<polygon fill="#EBEBEB" points="612.907,193.065 623.652,209.602 599.127,215.113 596.518,210.974 605.887,194.606 				"/>
			</g>
			<g>
				<polygon fill="#9B9B9B" points="599.127,215.113 597.694,223.531 595.105,219.393 596.518,210.974 				"/>
			</g>
			<g>
				<polygon fill="#BFBFBF" points="461.392,182.812 460.767,191.331 414.567,201.046 414.928,192.479 				"/>
			</g>
			<g>
				<polygon fill="#EBEBEB" points="444.846,152.602 461.392,182.812 414.928,192.479 399.185,161.7 				"/>
			</g>
			<g>
				<polygon fill="#999999" points="414.928,192.479 414.567,201.046 398.922,170.258 399.185,161.7 				"/>
			</g>
			<g>
				<polygon fill="#888A8A" points="337.031,186.334 337.125,194.966 326.406,171.471 326.252,162.846 				"/>
			</g>
			<g>
				<polygon fill="#EBEBEB" points="751.304,214.036 765.323,233.09 725.09,242.766 709.376,236.355 716.232,222.246 				"/>
			</g>
			<g>
				<polygon fill="#B8B8B8" points="765.323,233.09 762.932,241.374 722.907,251.087 725.09,242.766 				"/>
			</g>
			<g>
				<polygon fill="#AFAFAF" points="725.09,242.766 722.907,251.087 707.292,244.687 709.376,236.355 				"/>
			</g>
			<g enable-background="new    ">
				<g>
					<g>
						<defs>
							<path id="SVGID_7_" d="M650.177,234.547l-1.746,8.383c-0.055,0.262-0.154,0.513-0.298,0.749
								c-0.143,0.236-0.329,0.455-0.555,0.653c-0.227,0.198-0.492,0.374-0.795,0.523s-0.645,0.27-1.019,0.359
								c-0.601,0.142-1.232,0.185-1.86,0.142s-1.252-0.172-1.837-0.376c-0.585-0.203-1.131-0.481-1.604-0.82
								c-0.472-0.339-0.871-0.739-1.161-1.189c-0.107-0.168-0.197-0.336-0.269-0.504s-0.125-0.336-0.161-0.503
								s-0.054-0.332-0.056-0.494c-0.002-0.163,0.014-0.323,0.045-0.479l1.688-8.39c-0.031,0.156-0.047,0.316-0.045,0.479
								s0.021,0.328,0.058,0.494c0.035,0.167,0.09,0.335,0.161,0.503c0.072,0.168,0.162,0.337,0.271,0.504
								c0.293,0.45,0.694,0.85,1.169,1.19c0.475,0.339,1.025,0.617,1.613,0.821c0.589,0.204,1.216,0.334,1.848,0.377
								c0.632,0.044,1.267,0.001,1.871-0.14c0.377-0.088,0.719-0.209,1.024-0.358c0.305-0.148,0.571-0.324,0.799-0.521
								c0.227-0.197,0.414-0.417,0.557-0.652C650.021,235.06,650.122,234.809,650.177,234.547z"/>
						</defs>
						<clipPath id="SVGID_8_">
							<use xlink:href="#SVGID_7_"  overflow="visible"/>
						</clipPath>
						<g clip-path="url(#SVGID_8_)" enable-background="new    ">
							<path fill="#8E8F90" d="M650.177,234.547l-1.746,8.383c-0.001,0.007-0.003,0.014-0.005,0.021
								c-0.002,0.007-0.003,0.014-0.005,0.021c-0.002,0.007-0.003,0.014-0.005,0.021c-0.002,0.007-0.003,0.014-0.005,0.021
								l1.746-8.383c0.002-0.007,0.003-0.014,0.005-0.021c0.002-0.007,0.003-0.014,0.005-0.021c0.002-0.007,0.003-0.014,0.005-0.021
								C650.174,234.561,650.175,234.554,650.177,234.547"/>
							<path fill="#909192" d="M650.157,234.632l-1.746,8.383c-0.011,0.044-0.023,0.087-0.036,0.13s-0.028,0.086-0.044,0.128
								s-0.033,0.084-0.052,0.126s-0.038,0.083-0.06,0.124l1.745-8.383c0.021-0.041,0.041-0.082,0.06-0.124
								c0.018-0.042,0.035-0.084,0.052-0.126c0.016-0.042,0.031-0.085,0.044-0.128C650.134,234.719,650.146,234.676,650.157,234.632
								"/>
							<path fill="#939495" d="M649.966,235.14l-1.745,8.383c-0.021,0.04-0.042,0.079-0.064,0.118
								c-0.023,0.039-0.047,0.078-0.072,0.116s-0.051,0.076-0.079,0.113c-0.026,0.037-0.056,0.074-0.086,0.11l1.744-8.383
								c0.03-0.036,0.059-0.073,0.086-0.11c0.028-0.037,0.054-0.075,0.079-0.113s0.049-0.077,0.072-0.116
								C649.923,235.219,649.945,235.18,649.966,235.14"/>
							<path fill="#969797" d="M649.663,235.597l-1.744,8.383c-0.032,0.039-0.065,0.078-0.1,0.116
								c-0.035,0.038-0.071,0.076-0.108,0.112c-0.037,0.037-0.076,0.073-0.116,0.108c-0.04,0.035-0.081,0.07-0.124,0.104
								l1.742-8.384c0.043-0.034,0.084-0.069,0.124-0.104c0.04-0.035,0.079-0.071,0.117-0.108c0.038-0.037,0.074-0.074,0.109-0.112
								C649.597,235.675,649.631,235.636,649.663,235.597"/>
							<path fill="#999A9A" d="M649.213,236.037l-1.742,8.384c-0.056,0.045-0.112,0.088-0.173,0.13
								c-0.06,0.042-0.122,0.083-0.186,0.122c-0.064,0.039-0.13,0.077-0.199,0.114s-0.139,0.072-0.211,0.105l1.739-8.385
								c0.072-0.034,0.143-0.069,0.212-0.105c0.068-0.036,0.135-0.074,0.2-0.114c0.063-0.039,0.127-0.08,0.187-0.122
								C649.099,236.125,649.157,236.082,649.213,236.037"/>
							<path fill="#9B9C9D" d="M648.439,236.508l-1.739,8.385c-0.071,0.033-0.144,0.064-0.217,0.094
								c-0.074,0.03-0.151,0.058-0.229,0.085c-0.078,0.027-0.158,0.052-0.24,0.075s-0.165,0.045-0.251,0.065
								c-0.108,0.026-0.219,0.048-0.33,0.068c-0.11,0.019-0.222,0.035-0.335,0.048c-0.111,0.013-0.225,0.023-0.338,0.03
								c-0.113,0.007-0.227,0.011-0.341,0.012l1.726-8.387c0.114-0.001,0.229-0.005,0.344-0.012c0.113-0.007,0.227-0.017,0.34-0.03
								s0.225-0.029,0.337-0.048c0.111-0.019,0.222-0.042,0.332-0.067c0.086-0.02,0.17-0.042,0.252-0.065
								c0.082-0.023,0.163-0.048,0.241-0.075s0.155-0.055,0.229-0.085C648.295,236.571,648.368,236.541,648.439,236.508"/>
							<path fill="#999A9A" d="M646.146,236.983l-1.726,8.387c-0.092,0.001-0.185,0-0.277-0.003
								c-0.092-0.003-0.185-0.008-0.276-0.015c-0.092-0.007-0.185-0.015-0.276-0.026c-0.092-0.01-0.184-0.023-0.274-0.037
								l1.72-8.388c0.092,0.014,0.184,0.027,0.276,0.037c0.094,0.01,0.186,0.019,0.278,0.026c0.093,0.007,0.187,0.012,0.279,0.015
								C645.961,236.983,646.054,236.984,646.146,236.983"/>
							<path fill="#969797" d="M645.035,236.901l-1.72,8.388c-0.069-0.011-0.14-0.022-0.207-0.035
								c-0.069-0.013-0.139-0.026-0.206-0.041c-0.068-0.015-0.138-0.03-0.204-0.047c-0.068-0.017-0.135-0.034-0.202-0.053
								l1.715-8.388c0.068,0.019,0.135,0.036,0.204,0.053s0.137,0.033,0.206,0.047c0.069,0.015,0.138,0.029,0.207,0.041
								C644.896,236.879,644.965,236.891,645.035,236.901"/>
							<path fill="#939495" d="M644.21,236.724l-1.715,8.388c-0.063-0.017-0.123-0.035-0.186-0.054
								c-0.061-0.019-0.122-0.038-0.182-0.059c-0.06-0.02-0.12-0.042-0.18-0.063c-0.061-0.022-0.119-0.045-0.177-0.068l1.71-8.389
								c0.059,0.023,0.118,0.046,0.178,0.068c0.059,0.022,0.12,0.043,0.181,0.064c0.062,0.02,0.122,0.04,0.184,0.059
								C644.086,236.689,644.148,236.707,644.21,236.724"/>
							<path fill="#909192" d="M643.481,236.479l-1.71,8.389c-0.061-0.024-0.119-0.049-0.179-0.074
								c-0.059-0.025-0.117-0.052-0.174-0.079c-0.058-0.027-0.115-0.055-0.171-0.083c-0.056-0.028-0.112-0.058-0.167-0.088
								l1.706-8.39c0.055,0.03,0.112,0.059,0.168,0.088c0.056,0.029,0.114,0.056,0.172,0.083c0.058,0.027,0.116,0.053,0.175,0.079
								C643.361,236.43,643.421,236.455,643.481,236.479"/>
							<path fill="#8E8F90" d="M642.787,236.156l-1.706,8.39c-0.063-0.034-0.126-0.07-0.188-0.106
								c-0.062-0.036-0.121-0.074-0.182-0.112c-0.06-0.038-0.119-0.077-0.176-0.118c-0.059-0.04-0.114-0.081-0.17-0.123l1.701-8.39
								c0.056,0.042,0.112,0.083,0.171,0.123c0.058,0.04,0.116,0.079,0.177,0.118c0.06,0.039,0.121,0.076,0.183,0.112
								C642.66,236.086,642.723,236.121,642.787,236.156"/>
							<path fill="#8B8C8D" d="M642.066,235.696l-1.701,8.39c-0.107-0.081-0.21-0.165-0.31-0.252
								c-0.099-0.087-0.192-0.177-0.281-0.271c-0.09-0.094-0.174-0.189-0.253-0.288c-0.078-0.099-0.151-0.201-0.219-0.305
								c-0.107-0.168-0.197-0.336-0.269-0.504s-0.125-0.336-0.161-0.503s-0.054-0.332-0.056-0.494
								c-0.003-0.163,0.014-0.323,0.045-0.479l1.688-8.39c-0.031,0.156-0.047,0.316-0.045,0.479s0.021,0.328,0.057,0.494
								c0.036,0.167,0.091,0.335,0.162,0.503c0.072,0.168,0.162,0.337,0.271,0.504c0.068,0.104,0.142,0.206,0.221,0.305
								c0.079,0.099,0.164,0.195,0.254,0.288c0.09,0.093,0.185,0.184,0.284,0.271C641.854,235.531,641.958,235.615,642.066,235.696"
								/>
						</g>
					</g>
				</g>
			</g>
			<g>
				<path fill="#BEBEBD" d="M643.236,230.309c0.602-0.139,1.234-0.181,1.863-0.138c0.63,0.043,1.256,0.172,1.843,0.375
					c0.587,0.202,1.136,0.478,1.611,0.816c0.477,0.338,0.879,0.737,1.175,1.186c0.295,0.448,0.453,0.904,0.488,1.345
					s-0.054,0.867-0.255,1.254c-0.201,0.388-0.515,0.737-0.93,1.025s-0.931,0.514-1.534,0.655c-0.604,0.141-1.24,0.184-1.871,0.14
					c-0.632-0.044-1.259-0.173-1.848-0.377s-1.139-0.481-1.613-0.821c-0.475-0.339-0.877-0.74-1.169-1.19
					c-0.293-0.451-0.451-0.909-0.484-1.35c-0.032-0.441,0.059-0.867,0.261-1.253c0.202-0.386,0.517-0.733,0.932-1.019
					C642.119,230.673,642.634,230.449,643.236,230.309z"/>
			</g>
			<g>
				<polygon fill="#989999" points="413.076,192.864 412.725,201.433 400.586,218.109 400.869,209.522 				"/>
			</g>
			<g>
				<polygon fill="#ACACAC" points="722.486,259.096 720.292,267.423 697.804,256.833 699.852,248.488 				"/>
			</g>
			<g>
				<polygon fill="#B7B7B7" points="734.51,256.15 732.251,264.468 720.292,267.423 722.486,259.096 				"/>
			</g>
			<g>
				<polygon fill="#A3A4A4" points="279.56,197.965 279.996,206.653 257.647,211.225 257.074,202.515 				"/>
			</g>
			<g>
				<polygon fill="#888A8A" points="352.383,219.787 352.387,228.42 337.125,194.966 337.031,186.334 				"/>
			</g>
			<g>
				<polygon fill="#A1A2A3" points="400.869,209.522 400.586,218.109 352.387,228.42 352.383,219.787 				"/>
			</g>
			<g>
				<polygon fill="#9D9D9D" points="747.697,274.889 745.331,283.198 732.251,264.468 734.51,256.15 				"/>
			</g>
			<g>
				<polygon fill="#B5B5B5" points="788.531,264.633 785.951,272.907 745.331,283.198 747.697,274.889 				"/>
			</g>
			<g>
				<polygon fill="#999999" points="330.123,224.499 330.261,233.153 315.98,200.674 315.761,192.02 				"/>
			</g>
			<g>
				<polygon fill="#9A9A9A" points="605.649,257.383 604.133,265.809 595.921,252.398 597.374,243.969 				"/>
			</g>
			<g>
				<polygon fill="#B9B9B9" points="622.71,253.346 621.099,261.757 604.133,265.809 605.649,257.383 				"/>
			</g>
			<g>
				<polygon fill="#EBEBEB" points="614.321,240.03 622.71,253.346 605.649,257.383 597.374,243.969 				"/>
			</g>
			<g>
				<polygon fill="#999999" points="272.83,236.629 273.321,245.333 260.114,212.122 259.555,203.414 				"/>
			</g>
			<g>
				<polygon fill="#EBEBEB" points="335.719,187.974 350.459,220.194 330.123,224.499 315.761,192.02 				"/>
			</g>
			<g>
				<polygon fill="#BFBFBF" points="350.459,220.194 350.475,228.829 330.261,233.153 330.123,224.499 				"/>
			</g>
			<g>
				<polygon fill="#B5B5B5" points="746.056,275.518 743.699,283.828 699.984,294.906 702.104,286.561 				"/>
			</g>
			<g>
				<polygon fill="#BFBFBF" points="325.26,218.294 325.427,226.95 291.361,234.175 290.985,225.488 				"/>
			</g>
			<g>
				<polygon fill="#A2A3A3" points="262.024,214.944 262.572,223.654 236.487,229.078 235.776,220.344 				"/>
			</g>
			<g>
				<polygon fill="#9C9C9C" points="702.104,286.561 699.984,294.906 683.063,269.398 685.045,261.039 				"/>
			</g>
			<g>
				<polygon fill="#BFBFBF" points="293.77,232.196 294.13,240.882 273.321,245.333 272.83,236.629 				"/>
			</g>
			<g>
				<polygon fill="#EBEBEB" points="313.851,192.407 325.26,218.294 290.985,225.488 293.77,232.196 272.83,236.629 
					259.555,203.414 				"/>
			</g>
			<g>
				<polygon fill="#999999" points="512.803,275.384 511.823,283.887 493.198,249.678 494.043,241.16 				"/>
			</g>
			<g>
				<polygon fill="#B5B5B5" points="700.193,286.82 698.084,295.167 661.447,304.449 663.351,296.073 				"/>
			</g>
			<g>
				<polygon fill="#999999" points="663.351,296.073 661.447,304.449 657.938,282.645 659.79,274.264 				"/>
			</g>
			<g>
				<polygon fill="#EBEBEB" points="683.716,262.118 700.193,286.82 663.351,296.073 659.79,274.264 				"/>
			</g>
			<g>
				<polygon fill="#999999" points="447.701,273.438 447.117,281.996 437.271,262.402 437.787,253.836 				"/>
			</g>
			<g>
				<polygon fill="#B9B9B9" points="510.912,275.829 509.943,284.334 492.291,288.531 493.155,280.012 				"/>
			</g>
			<g>
				<polygon fill="#BABABA" points="445.048,272.477 444.48,281.036 423.214,285.988 423.651,277.411 				"/>
			</g>
			<g>
				<polygon fill="#5F6060" points="670.075,312.719 668.108,321.086 659.026,306.711 660.919,298.333 				"/>
			</g>
			<g>
				<polygon fill="#A2A3A3" points="238.312,227.04 239.01,235.773 76.933,269.764 75.172,260.895 				"/>
			</g>
			<g>
				<polygon fill="#A9A9A9" points="493.155,280.012 492.291,288.531 486.49,297.915 487.324,289.393 				"/>
			</g>
			<g>
				<polygon fill="#B7B7B7" points="595.372,287.591 593.884,296.025 547.288,307.506 548.503,299.036 				"/>
			</g>
			<g>
				<polygon fill="#B8B8B8" points="487.324,289.393 486.49,297.915 436.967,309.795 437.499,301.236 				"/>
			</g>
			<g>
				<polygon fill="#EBEBEB" points="492.186,241.579 510.912,275.829 493.155,280.012 487.324,289.393 437.499,301.236 
					426.301,278.383 447.701,273.438 437.787,253.836 				"/>
			</g>
			<g>
				<polygon fill="#999999" points="437.499,301.236 436.967,309.795 425.847,286.957 426.301,278.383 				"/>
			</g>
			<g>
				<polygon fill="#B5B5B5" points="617.99,307.465 616.344,315.876 559.955,330.162 561.268,321.711 				"/>
			</g>
			<g>
				<polygon fill="#B5B5B5" points="561.268,321.711 559.955,330.162 559.001,330.402 560.309,321.952 				"/>
			</g>
			<g>
				<polygon fill="#999999" points="560.309,321.952 559.001,330.402 547.15,309.18 548.365,300.71 				"/>
			</g>
			<g>
				<polygon fill="#999999" points="183.939,284.666 185.016,293.439 171.952,253.539 170.821,244.748 				"/>
			</g>
			<g>
				<polygon fill="#BDBDBD" points="276.208,264.473 276.687,273.173 185.016,293.439 183.939,284.666 				"/>
			</g>
			<g>
				<polygon fill="#EBEBEB" points="261.011,225.95 276.208,264.473 183.939,284.666 170.821,244.748 				"/>
			</g>
			<g>
				<polygon fill="#B8B8B8" points="435.52,301.706 435.001,310.266 374.99,324.662 375.131,316.061 				"/>
			</g>
			<g>
				<polygon fill="#B9B9B9" points="370.792,308.837 370.679,317.447 329.765,327.176 329.614,318.538 				"/>
			</g>
			<g>
				<polygon fill="#999999" points="329.614,318.538 329.765,327.176 308.658,276.063 308.38,267.389 				"/>
			</g>
			<g>
				<polygon fill="#5F6061" points="782.388,361.721 779.661,369.973 771.904,390.665 774.622,382.422 				"/>
			</g>
			<g>
				<polygon fill="#6B6C6C" points="327.534,319.027 327.698,327.667 305.841,332.864 305.533,324.21 				"/>
			</g>
			<g>
				<polygon fill="#676868" points="774.622,382.422 771.904,390.665 617.336,434.875 619.128,426.564 				"/>
			</g>
			<g>
				<polygon fill="#636464" points="619.128,426.564 617.336,434.875 589.445,424.333 591.041,415.986 				"/>
			</g>
			<g>
				<polygon fill="#606262" points="133.944,391.207 135.448,399.928 107.962,388.727 106.275,379.971 				"/>
			</g>
			<g>
				<polygon fill="#6B6B6B" points="314.785,347.443 315.036,356.073 135.448,399.928 133.944,391.207 				"/>
			</g>
			<g>
				<polygon fill="#EBEBEB" points="749.464,154.169 756.689,163.6 746.753,165.787 739.574,156.314 				"/>
			</g>
			<g>
				<polygon fill="#999999" points="418.851,138.913 418.482,147.433 417.867,146.273 418.231,137.754 				"/>
			</g>
			<g>
				<polygon fill="#EBEBEB" points="439.766,125.772 453.021,149.667 385.848,163.028 377.761,146.899 418.851,138.913 
					418.231,137.754 414.429,130.636 415.307,130.467 				"/>
			</g>
			<g>
				<polygon fill="#888A8A" points="106.386,177.805 107.855,186.636 106.533,182.199 105.062,173.369 				"/>
			</g>
			<g>
				<polygon fill="#888A8A" points="106.766,179.076 108.233,187.908 107.855,186.636 106.386,177.805 				"/>
			</g>
			<g>
				<polygon fill="#BEBEBD" points="375.956,147.25 384.631,164.599 397.366,162.062 413.076,192.864 400.869,209.522 
					352.383,219.787 337.031,186.334 326.252,162.846 327.146,162.566 				"/>
			</g>
			<g>
				<polygon fill="#ABABAB" points="539.517,284.973 538.368,293.453 511.823,283.887 512.803,275.384 				"/>
			</g>
			<g>
				<polygon fill="#999999" points="539.919,285.688 538.767,294.167 538.368,293.453 539.517,284.973 				"/>
			</g>
			<g>
				<polygon fill="#B7B7B7" points="548.503,299.036 547.288,307.506 546.345,307.738 547.555,299.268 				"/>
			</g>
			<g>
				<polygon fill="#999999" points="547.555,299.268 546.345,307.738 538.767,294.167 539.919,285.688 				"/>
			</g>
			<g>
				<polygon fill="#EBEBEB" points="539.479,230.923 567.326,240.686 595.372,287.591 548.503,299.036 547.555,299.268 
					539.919,285.688 539.517,284.973 512.803,275.384 494.043,241.16 				"/>
			</g>
			<g>
				<polygon fill="#EBEBEB" points="596.217,289.004 617.99,307.465 561.268,321.711 560.309,321.952 548.365,300.71 
					549.315,300.479 				"/>
			</g>
			<g>
				<polygon fill="#A2A3A3" points="75.172,260.895 76.933,269.764 75.85,269.991 74.083,261.12 				"/>
			</g>
			<g>
				<polygon fill="#BEBEBD" points="128.257,169.009 130.045,174.667 218.673,157.879 249.682,183.95 271.919,179.56 
					279.56,197.965 257.074,202.515 262.024,214.944 235.776,220.344 238.312,227.04 75.172,260.895 74.083,261.12 58.67,201.938 
					59.548,201.075 76.013,184.902 106.766,179.076 106.386,177.805 105.062,173.369 106.083,173.177 				"/>
			</g>
			<g>
				<polygon fill="#888A8A" points="74.083,261.12 75.85,269.991 60.462,210.82 58.67,201.938 				"/>
			</g>
			<g>
				<polygon fill="#999999" points="371.452,310.323 371.335,318.932 370.679,317.447 370.792,308.837 				"/>
			</g>
			<g>
				<polygon fill="#999999" points="374.109,316.302 373.975,324.906 371.335,318.932 371.452,310.323 				"/>
			</g>
			<g>
				<polygon fill="#B8B8B8" points="375.131,316.061 374.99,324.662 373.975,324.906 374.109,316.302 				"/>
			</g>
			<g>
				<polygon fill="#5E5F5F" points="589.571,415.434 587.986,423.781 540.611,336.766 541.81,328.302 				"/>
			</g>
			<g>
				<polygon fill="#636464" points="591.041,415.986 589.445,424.333 587.986,423.781 589.571,415.434 				"/>
			</g>
			<g>
				<polygon fill="#5E5F5F" points="104.888,379.407 106.584,388.166 76.785,273.583 75.019,264.715 				"/>
			</g>
			<g>
				<polygon fill="#606262" points="106.275,379.971 107.962,388.727 106.584,388.166 104.888,379.407 				"/>
			</g>
		</g>
	</g>
</g>
<g id="landmarks-large">
	<polygon id="applebees" fill="#7F7F7F" points="777.12,84.604 830.506,149.128 821.515,171.501 796.237,164.14 764.396,171.232 
		737.576,136.283 671.123,150.315 651.077,122.15 716.186,108.985 723.271,95.305 	"/>
	<polygon id="amc" fill="#7F7F7F" points="727.342,281.62 782.388,361.721 774.622,382.422 619.128,426.564 591.041,415.986 
		589.571,415.434 541.81,328.302 542.78,328.059 623.053,307.859 631.948,322.489 670.075,312.719 660.919,298.333 	"/>
	<polygon fill="#7F7F7F" points="168.734,245.183 182.251,286.507 266.488,268.04 269.562,275.98 306.357,267.836 327.534,319.027 
		305.533,324.21 314.785,347.443 133.944,391.207 106.275,379.971 104.888,379.407 75.019,264.715 76.111,264.486 	"/>
</g>
<g id="landmarks-small">
	<polygon id="subway" fill="#EBEBEB" points="621.494,121.8 647.091,129.469 658.543,145.713 650.95,147.301 655.378,153.64 
		610.938,163.023 602.039,149.586 612.271,147.468 598.189,126.471 	"/>
	<polygon id="mcdonalds" fill="#EBEBEB" points="751.195,175.554 764.795,193.549 719.724,203.878 717.203,183.139 	"/>
	<polygon id="pullnbear" fill="#EBEBEB" points="508.786,124.848 523.916,149.823 497.152,155.249 507.634,173.191 472.169,180.57 
		461.712,161.767 471.427,159.8 465.093,148.567 455.44,150.491 447.801,136.756 	"/>
	<polygon id="kfc" fill="#EBEBEB" points="708.392,237.879 724.237,244.503 766.27,234.377 788.531,264.633 747.697,274.889 
		734.51,256.15 722.486,259.096 699.852,248.488 	"/>
	<polygon id="pizzahut" fill="#EBEBEB" points="698.654,249.721 722.208,260.782 733.701,257.927 746.056,275.518 702.104,286.561 
		685.045,261.039 	"/>
	<polygon id="atnt" fill="#EBEBEB" points="407.982,245.338 435.866,254.27 445.048,272.477 423.651,277.411 435.52,301.706 
		375.131,316.061 374.109,316.302 371.452,310.323 370.792,308.837 329.614,318.538 308.38,267.389 	"/>
	<polygon id="cvs" fill="#EBEBEB" points="526.181,98.423 541.672,103.362 549.498,115.589 562.298,135.588 522.109,143.665 
		509.763,123.333 447.126,135.541 440.877,124.304 435.97,115.481 436.831,115.319 	"/>
</g>
</svg>
